<svg width="200" height="30" viewBox="0 0 200 30" fill="none" xmlns="http://www.w3.org/2000/svg">
<g clip-path="url(#clip0_219_7599)">
<path d="M199.684 0.00355911H128.502V30.0061H199.684V0.00355911ZM198.91 0.759443V29.2322H129.258V0.759443H198.91Z" fill="#03426A"/>
<path d="M0.860596 30.0061H125.425V0.00355148H0.860596V30.0061Z" fill="#03426A"/>
<path d="M198.91 0.759388V29.2322H129.258V0.759388H198.91Z" fill="white"/>
<path d="M43.8758 17.0297C43.8758 19.9813 42.292 21.4392 38.7464 21.4392H33.167V10.3884H38.5664C42.8499 10.3884 43.8758 12.4762 43.8758 14.7619V17.0297ZM46.1615 16.9397V15.0498C46.1615 9.0205 41.4101 8.78656 38.2244 8.78656H30.8633V23.077H38.8544C45.1357 23.077 46.1615 19.6754 46.1615 16.9397Z" fill="white"/>
<path d="M58.6162 19.5494C58.6162 20.3773 58.5442 21.1332 57.5903 21.4752C57.0324 21.6911 56.2405 21.7632 54.9086 21.7632C53.5768 21.7632 52.7849 21.6372 52.3169 21.3313C51.993 21.1333 51.867 20.8092 51.867 20.1253C51.867 19.2614 52.0829 18.7755 52.4969 18.5775C52.9108 18.3795 53.4328 18.3435 55.0526 18.3435H58.6162V19.5494ZM60.7759 23.077V17.4617C60.7759 16.3998 60.776 15.6619 60.686 15.1219C60.578 14.564 60.398 14.168 59.948 13.826C58.9042 13.0161 56.3484 12.9982 55.0886 12.9982C54.1347 12.9982 51.543 13.1062 50.5891 13.9161C50.2651 14.1861 50.1931 14.51 50.1931 14.906C50.1931 15.1579 50.2291 15.4998 50.2471 15.9498H52.3529C52.3889 15.6978 52.4429 15.0859 52.6768 14.8339C52.9648 14.5639 53.4508 14.456 54.8906 14.456C56.5464 14.456 57.6983 14.51 58.1842 14.78C58.6342 15.0319 58.6162 15.5719 58.6162 15.9858V16.9577H53.7567C52.4429 16.9577 50.9311 16.9937 50.1031 18.1276C49.7252 18.6135 49.5632 19.2435 49.5632 20.0534C49.5632 22.4291 51.021 23.221 54.7646 23.221C56.7084 23.221 57.9863 22.915 58.7602 22.2491L58.9582 23.077H60.7759Z" fill="white"/>
<path d="M73.8064 23.077V17.6056C73.8064 15.7158 73.7163 15.3198 73.2664 14.9779C72.8344 14.6539 71.9706 14.456 70.6567 14.456C69.5049 14.456 68.317 14.5999 67.2011 14.9059V23.077H65.0593V13.0701H66.9851L67.1291 13.79C67.561 13.5561 67.885 13.376 68.335 13.25C69.0549 13.034 69.9548 12.9261 71.1607 12.9261C72.5285 12.9261 73.5904 13.1421 74.4003 13.502C75.1922 13.844 75.6241 14.492 75.7861 15.2479C75.8941 15.7698 75.9481 16.2197 75.9481 17.3536V23.077H73.8064Z" fill="white"/>
<path d="M89.6986 22.4651C88.7087 22.9691 87.0889 23.185 84.9831 23.185C83.5253 23.185 82.3194 23.077 81.3835 22.825C80.3756 22.591 79.8717 22.1231 79.8177 21.2592C79.7817 20.8093 79.8177 20.4134 79.8717 19.8734H81.9415C82.0135 20.3774 82.0134 20.5393 82.0314 20.6473C82.1034 21.1153 82.0675 21.3673 82.6254 21.5472C83.1653 21.7092 84.0292 21.7812 85.1271 21.7812C86.4949 21.7812 87.4488 21.6371 88.0788 21.3492C88.5287 21.1512 88.7447 20.7912 88.7447 20.1073C88.7447 19.3154 88.5827 18.9915 87.7548 18.8656C87.5028 18.8116 87.2508 18.8115 86.9809 18.7935C86.8369 18.7755 86.369 18.7755 85.6131 18.7575C85.2531 18.7575 84.8391 18.7215 84.3532 18.7035C82.2114 18.5955 79.9437 18.5055 79.9437 16.0038C79.9437 13.7361 81.3295 12.9442 85.1451 12.9442C86.117 12.9442 87.3049 13.0162 88.0248 13.1062C88.8527 13.2142 89.4826 13.3581 89.9326 13.6101C90.4365 13.898 90.5985 14.3481 90.5985 15.14C90.5985 15.3559 90.5985 15.5719 90.5625 15.9139H88.4747L88.3847 15.4639C88.2767 14.924 88.2407 14.816 88.0608 14.69C87.7548 14.456 86.8369 14.348 85.5411 14.348C84.2452 14.348 83.5073 14.402 82.9134 14.6179C82.3554 14.8159 82.1034 15.1759 82.1034 15.8958C82.1034 16.3818 82.2834 16.7417 82.5174 16.9037C83.0753 17.2457 86.027 17.2097 87.0349 17.2277C88.1147 17.2457 88.8167 17.3357 89.4286 17.5516C90.5265 17.9296 90.9585 18.6495 90.9585 20.1073C90.9585 21.2772 90.5805 22.0152 89.6986 22.4651Z" fill="white"/>
<path d="M102.909 23.077L97.7435 18.3435H96.9876V23.077H94.8279V8.78656H96.9876V16.9217H97.7435L102.027 13.0701H104.547L99.5614 17.4796L105.771 23.077H102.909Z" fill="white"/>
<path d="M116.426 17.1016H109.532C109.604 15.8418 109.874 15.2839 110.36 14.9239C110.864 14.564 111.782 14.3839 113.132 14.3839C115.004 14.3839 115.886 14.7979 116.21 15.6618C116.336 16.0218 116.426 16.3637 116.426 17.1016ZM118.405 19.9453H116.281C116.209 20.2513 116.174 21.0252 115.886 21.3132C115.562 21.6372 114.914 21.7812 113.186 21.7812C111.476 21.7812 110.54 21.5471 110.054 21.0612C109.694 20.7012 109.478 19.9453 109.478 18.7754V18.5055H118.459C118.477 18.0196 118.513 17.8936 118.513 17.4976C118.513 15.8418 118.279 14.9239 117.559 14.222C116.749 13.3761 115.184 12.9621 113.024 12.9621C110.27 12.9621 108.578 13.592 107.876 14.9779C107.463 15.7698 107.229 16.8857 107.229 18.2715C107.229 20.4493 107.804 21.8171 109.082 22.501C109.874 22.933 111.242 23.185 112.988 23.203C114.446 23.203 115.616 23.131 116.893 22.753C118.135 22.3571 118.441 21.6551 118.441 21.0612C118.441 20.9172 118.441 20.4313 118.405 19.9453Z" fill="white"/>
<path d="M146.77 12.3862C146.77 14.4919 145.582 14.9239 143.134 14.9239H137.717V10.3884H143.404C145.582 10.3884 146.77 10.5864 146.77 12.3862ZM149.596 19.0454C149.596 17.2816 148.588 15.9857 146.176 15.6077V15.5718C148.048 15.0859 149.056 14.1139 149.056 12.5841C149.056 10.0644 147.832 8.78656 144.358 8.78656H135.413V23.077H144.718C147.85 23.077 149.596 21.6551 149.596 19.0454ZM147.292 19.2073C147.292 21.2411 145.852 21.4392 143.62 21.4392H137.717V16.5437H143.908C146.554 16.5437 147.292 17.3895 147.292 19.2073Z" fill="#03426A"/>
<path d="M161.276 19.5494C161.276 20.3773 161.222 21.1332 160.269 21.4752C159.711 21.6911 158.919 21.7632 157.587 21.7632C156.255 21.7632 155.463 21.6372 154.995 21.3313C154.671 21.1333 154.545 20.8092 154.545 20.1253C154.545 19.2614 154.761 18.7755 155.193 18.5775C155.589 18.3795 156.111 18.3435 157.749 18.3435H161.276V19.5494ZM163.454 23.077V17.4617C163.454 16.3998 163.454 15.6619 163.364 15.1219C163.256 14.564 163.076 14.168 162.626 13.826C161.582 13.0161 159.027 12.9982 157.767 12.9982C156.813 12.9982 154.221 13.1062 153.267 13.9161C152.943 14.1861 152.871 14.51 152.871 14.906C152.871 15.1579 152.907 15.4998 152.925 15.9498H155.031C155.085 15.6978 155.121 15.0859 155.355 14.8339C155.643 14.5639 156.129 14.456 157.569 14.456C159.225 14.456 160.377 14.51 160.862 14.78C161.312 15.0319 161.276 15.5719 161.276 15.9858V16.9577H156.435C155.121 16.9577 153.609 16.9937 152.781 18.1276C152.421 18.6135 152.241 19.2435 152.241 20.0534C152.241 22.4291 153.699 23.221 157.443 23.221C159.405 23.221 160.664 22.915 161.438 22.2491L161.636 23.077H163.454Z" fill="#03426A"/>
<path d="M175.945 23.077V17.6056C175.945 15.7158 175.855 15.3198 175.405 14.9779C174.973 14.6539 174.109 14.456 172.795 14.456C171.643 14.456 170.455 14.5999 169.34 14.9059V23.077H167.198V13.0701H169.124L169.286 13.79C169.699 13.5561 170.023 13.376 170.491 13.25C171.193 13.034 172.093 12.9261 173.299 12.9261C174.667 12.9261 175.729 13.1421 176.539 13.502C177.331 13.844 177.763 14.492 177.943 15.2479C178.051 15.7698 178.087 16.2197 178.087 17.3536V23.077H175.945Z" fill="#03426A"/>
<path d="M189.911 23.077L184.746 18.3435H183.972V23.077H181.83V8.78656H183.972V16.9217H184.746L189.029 13.0701H191.531L186.546 17.4796L192.755 23.077H189.911Z" fill="#03426A"/>
</g>
<defs>
<clipPath id="clip0_219_7599">
<rect width="198.826" height="30" fill="white" transform="translate(0.853516)"/>
</clipPath>
</defs>
</svg>
