<svg width="228" height="112" viewBox="0 0 228 112" fill="none" xmlns="http://www.w3.org/2000/svg">
<path d="M13.9883 42.6114V10.9187C13.9883 5.4405 18.3531 1 23.7379 1H147.65C153.035 1 157.401 5.4405 157.401 10.9187V100.945H13.9883V65.8557" fill="#FAFAFA"/>
<path d="M13.9883 42.6114V10.9187C13.9883 5.4405 18.3531 1 23.7379 1H147.65C153.035 1 157.401 5.4405 157.401 10.9187V100.945H13.9883V65.8557" stroke="#023E7D" stroke-miterlimit="10"/>
<path d="M1 100.945H170.389C170.389 106.33 166.024 110.695 160.639 110.695H10.7506C5.36481 110.695 1 106.33 1 100.945Z" fill="#FAFAFA" stroke="#023E7D" stroke-miterlimit="10"/>
<path d="M30.2667 10.1404C30.2667 12.903 28.0273 15.1434 25.2646 15.1434C22.5019 15.1434 20.2617 12.9031 20.2617 10.1404C20.2617 7.37765 22.5011 5.13745 25.2646 5.13745C28.0281 5.13745 30.2667 7.37775 30.2667 10.1404Z" fill="#FAFAFA" stroke="#023E7D" stroke-miterlimit="10"/>
<path d="M157.432 19.3831H13.958V100.945H157.432V19.3831Z" fill="#FAFAFA" stroke="#023E7D" stroke-miterlimit="10"/>
<path d="M57.2223 37.6704H38.4141V55.9202H57.2223V37.6704Z" fill="#FAFAFA" stroke="#023E7D" stroke-miterlimit="10"/>
<path d="M57.2223 65.9202H38.4141" stroke="#023E7D" stroke-miterlimit="10"/>
<path d="M57.2223 70.9202H38.4141" stroke="#023E7D" stroke-miterlimit="10"/>
<path d="M57.2223 75.9202H38.4141" stroke="#023E7D" stroke-miterlimit="10"/>
<path d="M57.2223 80.9202H38.4141" stroke="#023E7D" stroke-miterlimit="10"/>
<path d="M57.2223 85.9202H38.4141" stroke="#023E7D" stroke-miterlimit="10"/>
<path d="M94.754 37.6704H75.9458V55.9202H94.754V37.6704Z" fill="#FAFAFA" stroke="#023E7D" stroke-miterlimit="10"/>
<path d="M94.754 65.9202H75.9458" stroke="#023E7D" stroke-miterlimit="10"/>
<path d="M94.754 70.9202H75.9458" stroke="#023E7D" stroke-miterlimit="10"/>
<path d="M94.754 75.9202H75.9458" stroke="#023E7D" stroke-miterlimit="10"/>
<path d="M94.754 80.9202H75.9458" stroke="#023E7D" stroke-miterlimit="10"/>
<path d="M94.754 85.9202H75.9458" stroke="#023E7D" stroke-miterlimit="10"/>
<path d="M132.541 37.6704H113.733V55.9202H132.541V37.6704Z" fill="#FAFAFA" stroke="#023E7D" stroke-miterlimit="10"/>
<path d="M132.541 65.9202H113.733" stroke="#023E7D" stroke-miterlimit="10"/>
<path d="M132.541 70.9202H113.733" stroke="#023E7D" stroke-miterlimit="10"/>
<path d="M132.541 75.9202H113.733" stroke="#023E7D" stroke-miterlimit="10"/>
<path d="M132.541 80.9202H113.733" stroke="#023E7D" stroke-miterlimit="10"/>
<path d="M132.541 85.9202H113.733" stroke="#023E7D" stroke-miterlimit="10"/>
<path d="M124.635 46.1461L193.453 19.7659L193.181 74.0212L124.635 46.1461Z" fill="#FAFAFA" stroke="#023E7D" stroke-miterlimit="10"/>
<path d="M171.989 46.7019C171.989 31.5431 184.278 19.2551 199.436 19.2551C214.594 19.2551 226.884 31.5431 226.884 46.7019C226.884 61.8607 214.595 74.1487 199.436 74.1487C184.277 74.1487 171.989 61.8607 171.989 46.7019Z" fill="#FAFAFA" stroke="#023E7D" stroke-miterlimit="10"/>
<path d="M201.151 42.9203L210.689 43.0992C211.68 43.0956 212.481 43.8966 212.478 44.8882C212.474 45.8797 211.668 46.6862 210.676 46.6898L206.579 47.1045L211.554 47.3312C212.545 47.328 213.346 48.129 213.343 49.1202C213.339 50.1118 212.533 50.9186 211.541 50.9218L207.411 51.3055L210.689 51.6895C211.68 51.6859 212.481 52.4869 212.478 53.4785C212.474 54.47 211.668 55.2765 210.677 55.2801L206.546 55.6638L209.115 56.0501C210.107 56.0469 210.908 56.8479 210.905 57.8394C210.901 58.831 210.094 59.6375 209.103 59.641L204.973 60.0244L198.392 60.578C197.836 60.6247 197.278 60.6309 196.721 60.5965L195.957 60.5492C195.101 60.4963 194.254 60.3474 193.431 60.1053L191.652 59.5821C190.893 59.3586 190.11 59.2203 189.32 59.1697L188.877 59.1413C188.49 59.1161 188.102 59.1122 187.714 59.1297C186.509 59.1297 185.534 58.1509 185.538 56.9463L185.574 46.8693C185.578 45.8001 186.358 44.8921 187.414 44.7273L188.27 44.5938C188.565 44.5478 188.852 44.4624 189.123 44.3397L190.843 43.5632C190.923 43.5267 191.003 43.4873 191.08 43.444C191.08 43.444 194.108 41.7192 196.483 40.4645C198.858 39.2098 198.87 34.12 198.87 34.12C198.871 33.3433 199.649 32.8485 200.377 33.1163C203.711 34.3424 201.551 42.1344 201.151 42.9203Z" fill="white" stroke="#09BC8A" stroke-linecap="round" stroke-linejoin="round"/>
</svg>
