<svg width="227" height="112" viewBox="0 0 227 112" fill="none" xmlns="http://www.w3.org/2000/svg">
<path d="M33.605 42.6114V10.9187C33.605 5.4405 37.9698 1 43.3546 1H167.267C172.652 1 177.018 5.4405 177.018 10.9187V100.945H33.605V65.8557" fill="#FAFAFA"/>
<path d="M33.605 42.6114V10.9187C33.605 5.4405 37.9698 1 43.3546 1H167.267C172.652 1 177.018 5.4405 177.018 10.9187V100.945H33.605V65.8557" stroke="#023E7D" stroke-miterlimit="10"/>
<path d="M20.6169 100.945H190.006C190.006 106.33 185.641 110.695 180.256 110.695H30.3675C24.9817 110.695 20.6169 106.33 20.6169 100.945Z" fill="#FAFAFA" stroke="#023E7D" stroke-miterlimit="10"/>
<path d="M49.8834 10.1404C49.8834 12.903 47.644 15.1434 44.8813 15.1434C42.1186 15.1434 39.8784 12.9031 39.8784 10.1404C39.8784 7.37765 42.1178 5.13745 44.8813 5.13745C47.6448 5.13745 49.8834 7.37775 49.8834 10.1404Z" fill="#FAFAFA" stroke="#023E7D" stroke-miterlimit="10"/>
<path d="M177.048 19.3831H33.5747V100.945H177.048V19.3831Z" fill="#FAFAFA" stroke="#023E7D" stroke-miterlimit="10"/>
<path d="M76.839 40.5159H58.0308" stroke="#023E7D" stroke-miterlimit="10"/>
<path d="M76.839 48.9321H58.0308" stroke="#023E7D" stroke-miterlimit="10"/>
<path d="M76.839 57.3481H58.0308" stroke="#023E7D" stroke-miterlimit="10"/>
<path d="M76.839 65.7642H58.0308" stroke="#023E7D" stroke-miterlimit="10"/>
<path d="M76.839 74.1804H58.0308" stroke="#023E7D" stroke-miterlimit="10"/>
<path d="M76.839 82.5964H58.0308" stroke="#023E7D" stroke-miterlimit="10"/>
<path d="M122.064 37.5798H95.5627" stroke="#023E7D" stroke-miterlimit="10"/>
<path d="M148.841 40.8025H98.7854C97.0056 40.8025 95.5627 42.2453 95.5627 44.0252C95.5627 45.805 97.0056 47.2479 98.7854 47.2479H148.841C150.621 47.2479 152.064 45.805 152.064 44.0252C152.064 42.2453 150.621 40.8025 148.841 40.8025Z" fill="#FAFAFA" stroke="#023E7D" stroke-miterlimit="10"/>
<path d="M122.064 50.4705H95.5627" stroke="#023E7D" stroke-miterlimit="10"/>
<path d="M148.841 53.6934H98.7854C97.0056 53.6934 95.5627 55.1362 95.5627 56.9161C95.5627 58.6959 97.0056 60.1388 98.7854 60.1388H148.841C150.621 60.1388 152.064 58.6959 152.064 56.9161C152.064 55.1362 150.621 53.6934 148.841 53.6934Z" fill="#FAFAFA" stroke="#023E7D" stroke-miterlimit="10"/>
<path d="M95.5627 63.3613H122.064" stroke="#023E7D" stroke-miterlimit="10"/>
<path d="M148.841 66.584H98.7854C97.0056 66.584 95.5627 68.0268 95.5627 69.8067C95.5627 71.5865 97.0056 73.0294 98.7854 73.0294H148.841C150.621 73.0294 152.064 71.5865 152.064 69.8067C152.064 68.0268 150.621 66.584 148.841 66.584Z" fill="#FAFAFA" stroke="#023E7D" stroke-miterlimit="10"/>
<path d="M122.064 76.2522H95.5627" stroke="#023E7D" stroke-miterlimit="10"/>
<path d="M148.841 79.4749H98.7854C97.0056 79.4749 95.5627 80.9177 95.5627 82.6976C95.5627 84.4774 97.0056 85.9202 98.7854 85.9202H148.841C150.621 85.9202 152.064 84.4774 152.064 82.6976C152.064 80.9177 150.621 79.4749 148.841 79.4749Z" fill="#FAFAFA" stroke="#023E7D" stroke-miterlimit="10"/>
<path d="M191.235 19.3831H173.177C168.504 19.3831 164.715 23.1717 164.715 27.8453V76.5223C164.715 81.1958 168.504 84.9845 173.177 84.9845H191.235C195.908 84.9845 199.697 81.1958 199.697 76.5223V27.8453C199.697 23.1717 195.908 19.3831 191.235 19.3831Z" fill="#FAFAFA" stroke="#023E7D" stroke-miterlimit="10"/>
<path d="M181.323 30.1733H168.659" stroke="#023E7D" stroke-miterlimit="10"/>
<path d="M193.948 34.5173H170.371C169.426 34.5173 168.659 35.2838 168.659 36.2292C168.659 37.1746 169.426 37.941 170.371 37.941H193.948C194.893 37.941 195.659 37.1746 195.659 36.2292C195.659 35.2838 194.893 34.5173 193.948 34.5173Z" fill="#FAFAFA" stroke="#023E7D" stroke-miterlimit="10"/>
<path d="M181.323 42.2852H168.659" stroke="#023E7D" stroke-miterlimit="10"/>
<path d="M193.948 46.6292H170.371C169.426 46.6292 168.659 47.3956 168.659 48.341C168.659 49.2864 169.426 50.0529 170.371 50.0529H193.948C194.893 50.0529 195.659 49.2864 195.659 48.341C195.659 47.3956 194.893 46.6292 193.948 46.6292Z" fill="#FAFAFA" stroke="#023E7D" stroke-miterlimit="10"/>
<path d="M168.659 54.397H181.323" stroke="#023E7D" stroke-miterlimit="10"/>
<path d="M193.948 58.741H170.371C169.426 58.741 168.659 59.5074 168.659 60.4528C168.659 61.3982 169.426 62.1647 170.371 62.1647H193.948C194.893 62.1647 195.659 61.3982 195.659 60.4528C195.659 59.5074 194.893 58.741 193.948 58.741Z" fill="#FAFAFA" stroke="#023E7D" stroke-miterlimit="10"/>
<path d="M181.323 66.5088H168.659" stroke="#023E7D" stroke-miterlimit="10"/>
<path d="M193.948 70.8528H170.371C169.426 70.8528 168.659 71.6192 168.659 72.5646C168.659 73.5101 169.426 74.2765 170.371 74.2765H193.948C194.893 74.2765 195.659 73.5101 195.659 72.5646C195.659 71.6192 194.893 70.8528 193.948 70.8528Z" fill="#FAFAFA" stroke="#023E7D" stroke-miterlimit="10"/>
<path d="M186.842 71.8526L186.828 71.8912C186.526 72.7195 186.462 73.6142 186.64 74.477C186.796 75.2302 187.134 75.9349 187.623 76.5313L191.806 81.6287C192.64 82.6449 193.551 83.5947 194.532 84.4704C195.382 85.2289 196.399 85.7765 197.493 86.0928L205.398 88.3778L205.971 88.5686L208.065 89.3597C208.713 89.6045 209.325 89.9357 209.884 90.3442L210.781 90.9989C211.925 91.8339 213.506 91.7142 214.51 90.7164L225.287 80.0144C226.455 78.8552 226.416 76.9556 225.203 75.8447C224.71 75.3936 224.242 74.9162 223.801 74.4146L223.69 74.2879C222.788 73.2627 222.003 72.1405 221.349 70.9419L220.368 69.1427C219.667 67.8584 218.825 66.6567 217.856 65.5604L217.465 65.117C216.841 64.4108 216.166 63.751 215.446 63.1429L208.261 57.0725L203.62 53.22C202.597 52.2044 200.938 52.2044 199.915 53.22C198.892 54.2362 198.892 55.8835 199.915 56.8998L202.159 59.9386L197.518 56.0861C196.495 55.0705 194.836 55.0705 193.813 56.0861C192.79 57.1024 192.79 58.7496 193.813 59.7652L196.788 63.5307L192.147 59.6789C191.124 58.6626 189.465 58.6626 188.442 59.6789C187.419 60.6945 187.419 62.3418 188.442 63.358L193.324 68.7063L179.389 55.6238C178.365 54.6076 176.707 54.6076 175.684 55.6238C174.66 56.6394 174.66 58.2867 175.684 59.3029L194.603 78.59" fill="white"/>
<path d="M186.842 71.8526L186.828 71.8912C186.526 72.7195 186.462 73.6142 186.64 74.477C186.796 75.2302 187.134 75.9349 187.623 76.5313L191.806 81.6287C192.64 82.6449 193.551 83.5947 194.532 84.4704C195.382 85.2289 196.399 85.7765 197.493 86.0928L205.398 88.3778L205.971 88.5686L208.065 89.3597C208.713 89.6045 209.325 89.9357 209.884 90.3442L210.781 90.9989C211.925 91.8339 213.506 91.7142 214.51 90.7164L225.287 80.0144C226.455 78.8552 226.416 76.9556 225.203 75.8447C224.71 75.3936 224.242 74.9162 223.801 74.4146L223.69 74.2879C222.788 73.2627 222.003 72.1405 221.349 70.9419L220.368 69.1427C219.667 67.8584 218.825 66.6567 217.856 65.5604L217.465 65.117C216.841 64.4108 216.166 63.751 215.446 63.1429L208.261 57.0725L203.62 53.22C202.597 52.2044 200.938 52.2044 199.915 53.22C198.892 54.2362 198.892 55.8835 199.915 56.8998L202.159 59.9386L197.518 56.0861C196.495 55.0705 194.836 55.0705 193.813 56.0861C192.79 57.1024 192.79 58.7496 193.813 59.7652L196.788 63.5307L192.147 59.6789C191.124 58.6626 189.465 58.6626 188.442 59.6789C187.419 60.6945 187.419 62.3418 188.442 63.358L193.324 68.7063L179.389 55.6238C178.365 54.6076 176.707 54.6076 175.684 55.6238C174.66 56.6394 174.66 58.2867 175.684 59.3029L194.603 78.59" stroke="#023E7D" stroke-linecap="round" stroke-linejoin="round"/>
<path d="M182.315 81.8227C181.275 81.8227 180.432 80.9798 180.432 79.9397C180.432 78.8996 181.275 78.0566 182.315 78.0566C183.355 78.0566 184.199 78.8995 184.199 79.9397C184.199 80.9799 183.355 81.8227 182.315 81.8227Z" fill="#FAFAFA" stroke="#023E7D" stroke-miterlimit="10"/>
<path d="M49.179 53.4641L32.2189 100.642L28.224 83.3371L12.89 98.6701L4.221 90.0011L19.554 74.6671L2 70.3511L49.179 53.4641Z" fill="white" stroke="#09BC8A" stroke-miterlimit="10"/>
</svg>
