<svg width="228" height="112" viewBox="0 0 228 112" fill="none" xmlns="http://www.w3.org/2000/svg">
<path d="M177.546 34.0013C177.546 40.8321 171.969 46.3707 165.089 46.3707C158.211 46.3707 152.634 40.8322 152.634 34.0013C152.634 27.1704 158.211 21.632 165.089 21.632C171.969 21.632 177.546 27.1698 177.546 34.0013Z" fill="#FAFAFA" stroke="#023E7D" stroke-miterlimit="10"/>
<path d="M168.794 31.5264V30.9875C168.794 29.6211 167.679 28.5126 166.302 28.5126H163.877C162.5 28.5126 161.385 29.621 161.385 30.9875V31.5264C161.385 32.8929 162.5 34.0013 163.877 34.0013H166.302C167.679 34.0013 168.794 35.109 168.794 36.4755V37.0151C168.794 38.3815 167.679 39.4893 166.302 39.4893H163.877C162.5 39.4893 161.385 38.3816 161.385 37.0151V36.4755" fill="#FAFAFA"/>
<path d="M168.794 31.5264V30.9875C168.794 29.6211 167.679 28.5126 166.302 28.5126H163.877C162.5 28.5126 161.385 29.621 161.385 30.9875V31.5264C161.385 32.8929 162.5 34.0013 163.877 34.0013H166.302C167.679 34.0013 168.794 35.109 168.794 36.4755V37.0151C168.794 38.3815 167.679 39.4893 166.302 39.4893H163.877C162.5 39.4893 161.385 38.3816 161.385 37.0151V36.4755" stroke="#023E7D" stroke-miterlimit="10"/>
<path d="M165.09 25.8591V28.5128" stroke="#023E7D" stroke-miterlimit="10"/>
<path d="M165.09 39.4892V42.143" stroke="#023E7D" stroke-miterlimit="10"/>
<path d="M76.6947 34.0013C76.6947 40.8321 71.1176 46.3707 64.2383 46.3707C57.3598 46.3707 51.7827 40.8322 51.7827 34.0013C51.7827 27.1704 57.3598 21.632 64.2383 21.632C71.1176 21.632 76.6947 27.1698 76.6947 34.0013Z" fill="#FAFAFA" stroke="#023E7D" stroke-miterlimit="10"/>
<path d="M67.9433 31.5264V30.9875C67.9433 29.6211 66.8277 28.5126 65.4513 28.5126H63.0257C61.6492 28.5126 60.5337 29.621 60.5337 30.9875V31.5264C60.5337 32.8929 61.6492 34.0013 63.0257 34.0013H65.4513C66.8278 34.0013 67.9433 35.109 67.9433 36.4755V37.0151C67.9433 38.3815 66.8277 39.4893 65.4513 39.4893H63.0257C61.6492 39.4893 60.5337 38.3816 60.5337 37.0151V36.4755" fill="#FAFAFA"/>
<path d="M67.9433 31.5264V30.9875C67.9433 29.6211 66.8277 28.5126 65.4513 28.5126H63.0257C61.6492 28.5126 60.5337 29.621 60.5337 30.9875V31.5264C60.5337 32.8929 61.6492 34.0013 63.0257 34.0013H65.4513C66.8278 34.0013 67.9433 35.109 67.9433 36.4755V37.0151C67.9433 38.3815 66.8277 39.4893 65.4513 39.4893H63.0257C61.6492 39.4893 60.5337 38.3816 60.5337 37.0151V36.4755" stroke="#023E7D" stroke-miterlimit="10"/>
<path d="M64.2388 25.8591V28.5128" stroke="#023E7D" stroke-miterlimit="10"/>
<path d="M64.2388 39.4892V42.143" stroke="#023E7D" stroke-miterlimit="10"/>
<path d="M73.2912 10.7852L70.2754 12.4247L82.174 34.3108L85.1898 32.6712L73.2912 10.7852Z" fill="#FAFAFA" stroke="#023E7D" stroke-miterlimit="10"/>
<path d="M89.9757 4.14692L86.6934 5.15203L93.9875 28.9716L97.2698 27.9665L89.9757 4.14692Z" fill="#FAFAFA" stroke="#023E7D" stroke-miterlimit="10"/>
<path d="M107.398 1.00042L103.982 1.33855L106.436 26.1288L109.852 25.7907L107.398 1.00042Z" fill="#FAFAFA" stroke="#023E7D" stroke-miterlimit="10"/>
<path d="M121.599 1L119.145 25.7902L122.561 26.1284L125.015 1.33815L121.599 1Z" fill="#FAFAFA" stroke="#023E7D" stroke-miterlimit="10"/>
<path d="M139.021 4.14639L131.727 27.966L135.009 28.9711L142.303 5.15148L139.021 4.14639Z" fill="#FAFAFA" stroke="#023E7D" stroke-miterlimit="10"/>
<path d="M155.711 10.7867L143.802 32.6669L146.817 34.308L158.726 12.4278L155.711 10.7867Z" fill="#FAFAFA" stroke="#023E7D" stroke-miterlimit="10"/>
<path d="M227.112 107.353H133.021V111.273H227.112V107.353Z" fill="#FAFAFA" stroke="#023E7D" stroke-miterlimit="10"/>
<path d="M219.468 103.432H140.665V107.352H219.468V103.432Z" fill="#FAFAFA" stroke="#023E7D" stroke-miterlimit="10"/>
<path d="M164.385 56.3864H148.703V103.432H164.385V56.3864Z" fill="#FAFAFA" stroke="#023E7D" stroke-miterlimit="10"/>
<path d="M187.908 56.3864H172.226V103.432H187.908V56.3864Z" fill="#FAFAFA" stroke="#023E7D" stroke-miterlimit="10"/>
<path d="M211.43 56.3864H195.749V103.432H211.43V56.3864Z" fill="#FAFAFA" stroke="#023E7D" stroke-miterlimit="10"/>
<path d="M218.641 48.546L180.067 32.8642L141.492 48.546V56.3868H218.641V48.546Z" fill="#FAFAFA" stroke="#023E7D" stroke-miterlimit="10"/>
<path d="M95.0905 107.353H1V111.273H95.0905V107.353Z" fill="#FAFAFA" stroke="#023E7D" stroke-miterlimit="10"/>
<path d="M87.447 103.432H8.64404V107.352H87.447V103.432Z" fill="#FAFAFA" stroke="#023E7D" stroke-miterlimit="10"/>
<path d="M79.4085 56.3864H63.7268V103.432H79.4085V56.3864Z" fill="#FAFAFA" stroke="#023E7D" stroke-miterlimit="10"/>
<path d="M55.8858 56.3864H40.2041V103.432H55.8858V56.3864Z" fill="#FAFAFA" stroke="#023E7D" stroke-miterlimit="10"/>
<path d="M32.3633 56.3864H16.6816V103.432H32.3633V56.3864Z" fill="#FAFAFA" stroke="#023E7D" stroke-miterlimit="10"/>
<path d="M9.4707 48.546L48.045 32.8642L86.6199 48.546V56.3868H9.4707V48.546Z" fill="#FAFAFA" stroke="#023E7D" stroke-miterlimit="10"/>
<path d="M85.5601 69.0628H120.472V59.7453L141.584 78.0693L120.472 96.3714V87.5423H85.5601L96.4138 78.306L85.5601 69.0628Z" fill="white" stroke="#09BC8A" stroke-miterlimit="10"/>
</svg>
