<svg width="155" height="30" viewBox="0 0 155 30" fill="none" xmlns="http://www.w3.org/2000/svg">
<rect width="153.947" height="30" transform="translate(0.372803)" fill="#007550"/>
<path d="M56.3007 10.2759C57.55 9.61107 59.5287 9.72051 60.8337 10.2069C60.8177 10.8227 60.7488 11.5187 60.8337 12.1501L60.4278 12.188C60.0909 11.5365 59.2793 11.1104 58.4518 11.0993C57.8178 11.077 57.2662 11.2912 56.9107 11.7352C56.5951 12.1413 56.6534 12.7325 56.9797 13.1007C57.7966 14.0221 59.8204 14.4951 60.8761 15.7579C61.6187 16.6771 61.5843 17.8752 60.9345 18.8613C60.1706 20.0104 58.359 20.4165 57.0619 20.3005C56.3272 20.2335 55.5607 20.0862 54.8923 19.8252C54.9612 19.1068 54.9321 18.3347 54.9188 17.6029L55.3962 17.5807C55.5315 18.2501 56.2529 18.7587 56.8285 18.897C57.9133 19.167 58.6402 18.8279 59.0142 18.4576C59.481 17.9957 59.3987 17.1858 59.1255 16.8668C58.4704 16.097 57.2344 15.6263 56.3564 15.0997C53.8499 13.5915 54.6271 11.2175 56.3007 10.2759Z" fill="white"/>
<path d="M33.7207 19.7334C34.3308 19.8338 34.9329 19.72 35.275 19.285C35.4793 19.0083 35.5588 18.6847 35.5588 18.3344V11.9668C35.5535 11.3198 35.4872 10.626 34.909 10.2043V9.93656H38.1369V10.1998C37.5799 10.5278 37.5455 11.1525 37.5455 11.978C37.5455 11.9579 37.5746 16.1725 37.5746 16.1725C37.5746 17.3215 37.625 18.2252 37.5773 18.5598C37.4526 19.3809 36.7868 20.1105 35.8505 20.376C35.2034 20.5701 34.3759 20.5567 33.6624 20.4809L33.7207 19.7334Z" fill="white"/>
<path d="M44.394 9.93666C44.2985 10.432 44.4735 10.8648 44.7335 11.2598L46.3753 13.6939C46.4417 13.7965 46.4867 13.8925 46.5478 14.013C46.5928 13.8992 46.6512 13.7831 46.7069 13.6894C47.2559 12.8349 47.8633 11.9959 48.4203 11.1414C48.6511 10.7844 48.7492 10.3784 48.6617 9.93666H51.5634C51.5581 9.93666 51.5767 10.2 51.5634 10.2067C50.9136 10.4053 50.2876 11.3244 49.9772 11.7795L47.4867 15.519L47.4893 18.6224C47.4973 19.4323 47.6829 19.7246 48.0569 19.9522V20.2154H44.821V19.9522C45.317 19.6398 45.3754 19.3029 45.3913 18.6113L45.3992 15.4743L42.5347 11.2106C42.2615 10.8135 41.8185 10.4097 41.3225 10.2067V9.93666H44.394Z" fill="white"/>
<path d="M123.605 9.9388C123.727 10.3203 124.369 11.0164 124.696 11.3734L129.777 16.9512C130.032 17.2279 130.202 17.4957 130.202 17.4957C130.202 17.4957 130.17 17.3552 130.151 17.1209C130.128 16.9 130.122 16.5898 130.117 16.2641V12.5025C130.117 11.4137 130.077 10.5814 129.467 10.2267V9.94561H132.475V10.2267C131.804 10.6952 131.825 11.5342 131.828 12.5426V18.0356C131.833 18.7473 131.865 19.5126 132.308 19.9477V20.2154H129.921C129.839 19.613 128.801 18.6134 128.284 18.0556L123.892 13.2253C123.791 13.1048 123.627 12.8326 123.627 12.8326C123.627 12.8326 123.648 12.9487 123.661 13.1584C123.682 13.5243 123.701 14.169 123.698 14.9633V17.6162C123.703 18.9058 123.727 19.6376 124.343 19.9455V20.2154H121.367C121.372 20.2154 121.364 19.9521 121.367 19.9477C121.69 19.7379 121.985 19.6019 121.987 17.5805V11.2574C121.637 10.8625 121.218 10.3405 120.645 10.2088V9.9388H123.605Z" fill="white"/>
<path d="M79.7691 19.7759C80.1961 19.285 80.1536 18.6313 80.1908 18.0088V12.1745C80.1855 11.4047 80.2095 10.6039 79.6604 10.2067V9.93669H86.859L85.6575 11.668C84.883 11.146 83.8936 11.0879 82.2066 11.0768V14.2651H86.172L84.9944 15.9518C84.2491 15.4007 83.196 15.3873 82.204 15.374V19.0374C85.1482 19.053 85.8883 18.8344 87.1004 18.2209L87.2994 18.3146L86.4082 20.2133H79.5596V19.9477L79.7691 19.7759Z" fill="white"/>
<path d="M65.9556 19.9455C66.4304 19.7246 66.5894 19.2181 66.5894 17.6407C66.5894 16.1526 66.5894 12.3865 66.5894 12.3865C66.5894 11.6458 66.653 10.4834 66.0775 10.2067V9.93884H69.1516V10.1999C68.7007 10.4409 68.7141 10.8648 68.6292 11.2508C68.5947 11.7171 68.5814 12.208 68.5814 12.7077V14.3007C68.5814 14.3587 68.5787 14.4301 68.5787 14.4881C68.5787 14.4881 68.6424 14.4011 68.714 14.3297L71.5813 11.3199C71.9367 10.8849 72.4645 10.5167 72.369 9.93884H75.5757V10.1999C75.0983 10.365 74.6767 10.6574 74.2868 10.9854C74.0958 11.1438 73.8835 11.3043 73.7244 11.4783C73.5626 11.6568 73.1381 12.0964 73.1381 12.0964L71.3133 13.9683C70.9049 14.39 70.7087 14.5529 70.7087 14.5529C70.7087 14.5529 70.9261 14.738 71.3187 15.1776L73.5175 17.5627C74.4246 18.5243 74.9711 19.062 74.9711 19.062C75.3477 19.39 75.788 19.8273 76.3238 19.9455V20.2154H72.8252C72.8862 19.6822 72.5255 19.2895 72.2178 18.8857L68.6901 15.0392C68.6264 14.97 68.5814 14.8853 68.5814 14.8853C68.5814 14.8853 68.5866 14.9433 68.5866 15.0615L68.5973 17.6854C68.6079 18.9794 68.6875 19.6733 69.2525 19.9455C69.2604 19.9455 69.2472 20.2154 69.2525 20.2154C69.2578 20.2132 65.9503 20.2154 65.9556 20.2154V19.9455Z" fill="white"/>
<path d="M137.374 19.9455C137.849 19.7246 138.011 19.2182 138.014 17.6385C138.016 16.1526 138.014 12.3865 138.014 12.3865C138.011 11.6458 138.075 10.4834 137.496 10.2067V9.93666H140.573V10.1999C140.122 10.4364 140.133 10.8648 140.048 11.2508C140.016 11.7171 140.008 12.208 140.005 12.7077C140.005 12.7077 140 14.2985 140.005 14.3007C140.005 14.3587 139.995 14.4301 139.995 14.4881C139.995 14.4881 140.058 14.3967 140.133 14.3297L143 11.3199C143.356 10.8826 143.886 10.5168 143.793 9.93666H146.997V10.1999C146.522 10.365 146.103 10.6551 145.705 10.983C145.514 11.1437 145.308 11.3021 145.143 11.4783C144.981 11.6523 144.56 12.0941 144.56 12.0941L142.735 13.9683C142.326 14.3878 142.135 14.5506 142.135 14.5506C142.135 14.5506 142.345 14.738 142.743 15.1776L144.939 17.5604C145.846 18.5242 146.39 19.062 146.39 19.062C146.769 19.3877 147.209 19.825 147.745 19.9432V20.2154H144.244C144.31 19.68 143.944 19.2895 143.639 18.8857L140.114 15.0392C140.048 14.97 140.005 14.883 140.005 14.883C140.005 14.883 140.011 14.9411 140.011 15.0615L140.021 17.6831C140.029 18.9771 140.109 19.6733 140.671 19.9455C140.676 19.9433 140.671 20.2154 140.671 20.2154H137.374C137.382 20.2154 137.382 19.9455 137.374 19.9455Z" fill="white"/>
<path d="M112.051 13.4931L110.895 15.9719H113.879L112.693 13.5064C112.555 13.2097 112.364 12.7301 112.364 12.7301C112.364 12.7301 112.179 13.1963 112.051 13.4931ZM106.463 19.9477C107.166 19.6197 107.853 18.2364 108.195 17.5894L112.28 9.84964H112.664L116.683 17.5247C117.462 18.9972 117.794 19.6912 118.391 19.9455V20.2154H115.51C115.643 19.7313 115.468 19.2783 115.288 18.8633L114.425 17.1633H110.367L109.797 18.368C109.463 19.0352 109.243 19.4903 109.351 20.2154H106.463C106.463 20.211 106.468 19.9455 106.463 19.9477Z" fill="white"/>
<path d="M19.2678 8.44403L23.3817 11.9046H15.1619L19.2678 8.44403Z" fill="white"/>
<path d="M12.7905 7.88414H18.602L12.7905 12.7725V7.88414Z" fill="white"/>
<path d="M7.73779 11.3422L11.8464 7.88396V14.7982L7.73779 11.3422Z" fill="white"/>
<path d="M7.06665 16.7929V11.9046L12.8807 16.7929H7.06665Z" fill="white"/>
<path d="M11.1753 21.0409L7.06665 17.5849H15.2891L11.1753 21.0409Z" fill="white"/>
<path d="M17.6602 21.6032H11.8462L17.6602 16.7125V21.6032Z" fill="white"/>
<path d="M22.713 18.1471L18.5991 21.6032V14.6889L22.713 18.1471Z" fill="white"/>
<path d="M23.3817 12.6965V17.5849L17.5649 12.6965H23.3817Z" fill="white"/>
<path d="M98.8531 14.314C99.6144 14.3297 100.408 14.3253 100.962 13.7631C101.561 13.154 101.588 12.1455 101.129 11.6256C100.569 10.9942 99.8 10.905 98.8531 10.9228V14.314ZM98.8531 19.1668C99.93 19.2271 101.044 19.0977 101.665 18.2722C102.041 17.7456 102.1 16.9446 101.776 16.3756C101.206 15.4564 100.028 15.3114 98.8531 15.3382V19.1668ZM96.1928 19.9633C96.8559 19.6978 96.8533 18.9102 96.8586 17.7032V12.3173C96.8348 11.0433 96.8399 10.5213 96.3599 10.2067V9.94113H99.4817C100.861 9.9389 102.545 10.1576 103.269 11.5208C103.641 12.2258 103.532 13.0223 103.132 13.609C102.694 14.2092 101.954 14.6042 101.177 14.7179C102.301 14.8206 103.498 15.3248 103.933 16.2686C104.368 17.2235 104.129 18.4395 103.269 19.1913C102.304 20.0057 101.134 20.2154 99.4102 20.2154H96.1928C96.1875 20.2243 96.1928 19.9566 96.1928 19.9633Z" fill="white"/>
</svg>
