<svg width="384" height="183" viewBox="0 0 384 183" fill="none" xmlns="http://www.w3.org/2000/svg">
<g clip-path="url(#clip0_216_6445)">
<path d="M0 109.949V39.4897H29.6968C34.3636 39.4897 38.3505 40.2938 41.6616 41.9014C44.9727 43.509 47.5262 45.7789 49.3221 48.7112C51.1194 51.6428 52.0181 55.1895 52.0181 59.3506C52.0181 62.5665 51.1505 65.5778 49.4166 68.3824C47.6813 71.1891 44.9247 73.5063 41.141 75.334V69.3756C44.6087 70.6996 47.3512 72.3403 49.3686 74.2936C51.386 76.2489 52.8052 78.4244 53.6263 80.8191C54.4445 83.216 54.8551 85.7371 54.8551 88.3858C54.8551 95.1329 52.6331 100.413 48.1864 104.227C43.7425 108.043 37.5788 109.949 29.6968 109.949L0 109.949ZM12.8635 66.822H30.3599C33.0079 66.822 35.1199 66.051 36.6971 64.5048C38.2715 62.9607 39.0616 60.9581 39.0616 58.4991C39.0616 56.0401 38.2716 54.0869 36.6971 52.6359C35.1199 51.1863 33.0079 50.4605 30.3599 50.4605H12.8635V66.822ZM12.8635 98.5997H31.023C34.3637 98.5997 37.0273 97.67 39.0136 95.8099C41 93.9505 41.9932 91.4753 41.9932 88.3857C41.9932 85.2961 41 82.8054 39.0136 80.9142C37.0272 79.0224 34.3637 78.0764 31.023 78.0764H12.8635V98.5997Z" fill="white"/>
<path d="M89.4686 111.084C84.4237 111.084 79.8372 109.918 75.7079 107.584C71.5771 105.252 68.2985 102.068 65.872 98.0318C63.4455 93.9977 62.2322 89.3943 62.2322 84.2238C62.2322 79.0533 63.4455 74.4514 65.872 70.4158C68.2985 66.3817 71.5617 63.1969 75.6614 60.8634C79.7597 58.5321 84.3617 57.3647 89.4687 57.3647C94.5136 57.3647 99.0845 58.5321 103.183 60.8634C107.281 63.1968 110.543 66.3654 112.972 70.3685C115.399 74.373 116.612 78.9912 116.612 84.2237C116.612 89.3942 115.383 93.9976 112.924 98.0317C110.465 102.068 107.185 105.252 103.088 107.584C98.9886 109.918 94.4486 111.084 89.4686 111.084ZM89.4686 99.7346C92.2422 99.7346 94.6856 99.0722 96.799 97.7482C98.9109 96.4242 100.583 94.5803 101.811 92.2158C103.04 89.8513 103.655 87.1885 103.655 84.2238C103.655 81.1977 103.04 78.5348 101.811 76.2325C100.583 73.9315 98.9109 72.1039 96.799 70.7467C94.6857 69.3918 92.2422 68.7138 89.4686 68.7138C86.6329 68.7138 84.1415 69.3918 81.9971 70.7467C79.8527 72.1039 78.1683 73.9315 76.9381 76.2325C75.7079 78.5349 75.0928 81.1977 75.0928 84.2238C75.0928 87.1885 75.7079 89.8514 76.9381 92.2158C78.1683 94.5803 79.8528 96.4241 81.9971 97.7482C84.1414 99.0723 86.6329 99.7346 89.4686 99.7346Z" fill="white"/>
<path d="M125.975 109.948V38.3545H138.364V109.948H125.975Z" fill="white"/>
<path d="M149.807 52.7305V39.4897H162.197V52.7305H149.807ZM149.807 109.949V58.4991H162.197V109.949H149.807Z" fill="white"/>
<path d="M198.609 130.755C194.763 130.755 191.2 130.124 187.921 128.864C184.642 127.602 181.821 125.852 179.456 123.615C177.092 121.376 175.373 118.744 174.303 115.718L185.841 111.367C186.598 113.763 188.094 115.702 190.333 117.184C192.571 118.664 195.33 119.406 198.609 119.406C201.13 119.406 203.352 118.933 205.276 117.987C207.199 117.042 208.696 115.671 209.768 113.873C210.84 112.077 211.376 109.918 211.376 107.395V95.6674L213.741 98.5051C211.975 101.595 209.61 103.928 206.647 105.503C203.683 107.081 200.31 107.868 196.528 107.868C191.736 107.868 187.45 106.765 183.666 104.558C179.882 102.352 176.918 99.3248 174.775 95.4783C172.631 91.6332 171.56 87.3141 171.56 82.5217C171.56 77.6672 172.631 73.3474 174.775 69.5644C176.918 65.7814 179.851 62.8026 183.571 60.6271C187.292 58.4517 191.516 57.3647 196.244 57.3647C200.09 57.3647 203.479 58.1681 206.41 59.7764C209.342 61.384 211.786 63.7012 213.741 66.7273L212.039 69.8486V58.4989H223.766V107.395C223.766 111.871 222.678 115.875 220.503 119.406C218.329 122.936 215.363 125.71 211.613 127.729C207.861 129.746 203.527 130.755 198.609 130.755ZM198.042 96.4241C200.688 96.4241 203.006 95.8422 204.993 94.6747C206.979 93.5087 208.539 91.8842 209.675 89.804C210.809 87.7231 211.377 85.3277 211.377 82.6161C211.377 79.9681 210.792 77.5888 209.627 75.4755C208.459 73.3643 206.885 71.7087 204.898 70.5103C202.912 69.3133 200.626 68.7137 198.042 68.7137C195.454 68.7137 193.124 69.3133 191.043 70.5103C188.962 71.7088 187.338 73.3643 186.172 75.4755C185.005 77.5888 184.422 79.9681 184.422 82.6161C184.422 85.2642 185.005 87.6286 186.172 89.7095C187.338 91.7897 188.945 93.4304 190.996 94.6275C193.043 95.826 195.392 96.4241 198.042 96.4241Z" fill="white"/>
<path d="M235.303 109.948V38.3545H247.693V109.948H235.303Z" fill="white"/>
<path d="M274.742 111.084C271.148 111.084 268.028 110.483 265.378 109.286C262.732 108.09 260.68 106.371 259.232 104.132C257.78 101.895 257.056 99.2937 257.056 96.3297C257.056 93.4926 257.685 90.9554 258.948 88.7164C260.208 86.4789 262.163 84.6026 264.811 83.0888C267.459 81.5757 270.801 80.5043 274.836 79.8736L291.671 77.1311V86.5882L290.153 86.8461L277.201 89.0472C274.742 89.4895 272.912 90.2767 271.715 91.4117C270.516 92.5467 269.918 94.0287 269.918 95.8571C269.918 97.6227 270.595 99.025 271.952 100.065C273.307 101.106 274.993 101.626 277.011 101.626C279.596 101.626 281.881 101.075 283.868 99.9709C285.854 98.8684 287.398 97.3391 288.502 95.3838C289.604 93.4306 290.157 91.2862 290.157 88.9528V75.712C290.157 73.5063 289.291 71.6617 287.557 70.1796C285.822 68.699 283.538 67.9569 280.699 67.9569C278.053 67.9569 275.702 68.6665 273.654 70.0851C271.605 71.5036 270.107 73.3807 269.162 75.712L259.042 70.794C260.05 68.0839 261.642 65.7343 263.818 63.7486C265.993 61.7622 268.561 60.2019 271.526 59.0669C274.489 57.9319 277.706 57.3648 281.173 57.3648C285.397 57.3648 289.117 58.1372 292.332 59.6813C295.549 61.2275 298.055 63.3698 299.852 66.113C301.649 68.8555 302.546 72.0559 302.546 75.7119V109.949H290.82V101.153L293.467 100.964C292.143 103.172 290.566 105.016 288.739 106.497C286.909 107.979 284.828 109.114 282.496 109.901C280.163 110.689 277.579 111.084 274.742 111.084ZM281.268 53.3921C277.926 53.3921 275.121 52.3375 272.85 50.2242C270.581 48.1123 269.445 45.3535 269.445 41.9486C269.445 38.6072 270.564 35.8809 272.803 33.7682C275.039 31.6563 277.864 30.5996 281.268 30.5996C284.608 30.5996 287.398 31.6563 289.638 33.7682C291.875 35.8808 292.995 38.6072 292.995 41.9486C292.995 45.3535 291.875 48.1123 289.638 50.2242C287.398 52.3375 284.608 53.3921 281.268 53.3921ZM281.268 46.0152C282.402 46.0152 283.332 45.6371 284.057 44.8809C284.782 44.124 285.146 43.1471 285.146 41.9486C285.146 40.7516 284.782 39.7894 284.057 39.0643C283.332 38.3399 282.402 37.9766 281.268 37.9766C280.132 37.9766 279.17 38.3399 278.383 39.0643C277.593 39.7894 277.201 40.7516 277.201 41.9486C277.201 43.1471 277.579 44.124 278.335 44.8809C279.092 45.6371 280.07 46.0152 281.268 46.0152Z" fill="white"/>
<path d="M313.989 109.949V58.4989H325.621V68.6191L324.676 66.8218C325.872 63.7336 327.844 61.384 330.587 59.7764C333.329 58.1681 336.529 57.3647 340.186 57.3647C343.97 57.3647 347.327 58.1844 350.259 59.8237C353.19 61.4637 355.476 63.7485 357.115 66.6801C358.755 69.6117 359.574 73.0018 359.574 76.8469V109.949H347.185V79.7793C347.185 77.5094 346.743 75.5553 345.86 73.9153C344.977 72.2767 343.764 70.9999 342.22 70.085C340.674 69.1715 338.863 68.7137 336.782 68.7137C334.763 68.7137 332.966 69.1715 331.391 70.085C329.814 70.9999 328.584 72.2766 327.703 73.9153C326.819 75.5553 326.379 77.5094 326.379 79.7793V109.949L313.989 109.949Z" fill="white"/>
<path d="M235.303 24.7788V25.9559H247.693V24.7789C247.693 17.9364 253.24 12.3894 260.082 12.3894H358.775C365.618 12.3894 371.165 17.9364 371.165 24.7789V123.472C371.165 130.314 365.618 135.861 358.775 135.861H339.57C334.337 135.861 329.238 137.518 325.005 140.594L301.059 157.994C299.49 159.134 297.291 158.013 297.291 156.074C297.291 144.911 288.241 135.861 277.078 135.861H260.082C253.24 135.861 247.693 130.314 247.693 123.472V122.4H235.303V123.472C235.303 137.157 246.397 148.251 260.082 148.251H272.432C279.263 148.251 284.806 153.78 284.822 160.611L284.87 180.552C284.874 182.488 287.07 183.604 288.637 182.467L329.259 152.977C333.491 149.905 338.586 148.251 343.816 148.251H358.775C372.46 148.251 383.554 137.157 383.554 123.472V24.7788C383.554 11.0938 372.46 0 358.775 0H260.082C246.397 0 235.303 11.0939 235.303 24.7788Z" fill="#09BC8A"/>
</g>
<defs>
<clipPath id="clip0_216_6445">
<rect width="383.554" height="182.924" fill="white"/>
</clipPath>
</defs>
</svg>
