<svg width="189" height="90" viewBox="0 0 189 90" fill="none" xmlns="http://www.w3.org/2000/svg">
<g clip-path="url(#clip0_387_7898)">
<path d="M0 54.0956V19.4292H14.6111C16.9072 19.4292 18.8687 19.8248 20.4978 20.6158C22.1269 21.4067 23.3833 22.5235 24.2669 23.9662C25.1511 25.4086 25.5933 27.1536 25.5933 29.2009C25.5933 30.7832 25.1664 32.2647 24.3134 33.6446C23.4596 35.0256 22.1033 36.1656 20.2417 37.0649V34.1333C21.9478 34.7847 23.2972 35.592 24.2897 36.553C25.2823 37.515 25.9806 38.5854 26.3846 39.7636C26.7871 40.9429 26.9891 42.1833 26.9891 43.4865C26.9891 46.806 25.8959 49.4038 23.7081 51.2803C21.5217 53.1579 18.4891 54.0956 14.6111 54.0956L0 54.0956ZM6.32894 32.8769H14.9373C16.2401 32.8769 17.2793 32.4976 18.0553 31.7368C18.8299 30.9771 19.2186 29.9918 19.2186 28.782C19.2186 27.5721 18.8299 26.6111 18.0553 25.8972C17.2793 25.184 16.2401 24.8269 14.9373 24.8269H6.32894V32.8769ZM6.32894 48.5118H15.2636C16.9072 48.5118 18.2177 48.0544 19.195 47.1392C20.1723 46.2243 20.661 45.0065 20.661 43.4864C20.661 41.9663 20.1723 40.7409 19.195 39.8104C18.2177 38.8796 16.9072 38.4142 15.2636 38.4142H6.32894V48.5118Z" fill="#023E7D"/>
<path d="M44.0192 54.6542C41.5371 54.6542 39.2805 54.0806 37.2489 52.9325C35.2165 51.7851 33.6034 50.2185 32.4095 48.2327C31.2157 46.2478 30.6187 43.9829 30.6187 41.439C30.6187 38.8951 31.2157 36.6309 32.4095 34.6454C33.6034 32.6606 35.2089 31.0936 37.226 29.9455C39.2424 28.7985 41.5066 28.2241 44.0193 28.2241C46.5014 28.2241 48.7503 28.7985 50.7667 29.9455C52.7831 31.0936 54.3879 32.6525 55.5832 34.6221C56.7771 36.5923 57.374 38.8645 57.374 41.439C57.374 43.9829 56.7694 46.2478 55.5596 48.2326C54.3497 50.2184 52.736 51.7851 50.7203 52.9325C48.7032 54.0805 46.4694 54.6542 44.0192 54.6542ZM44.0192 49.0704C45.3839 49.0704 46.5861 48.7445 47.6259 48.0931C48.6649 47.4417 49.4875 46.5345 50.0921 45.3711C50.6966 44.2078 50.9993 42.8977 50.9993 41.439C50.9993 39.9501 50.6966 38.64 50.0921 37.5072C49.4875 36.3751 48.6649 35.4759 47.6259 34.8082C46.5861 34.1415 45.3839 33.808 44.0192 33.808C42.6241 33.808 41.3983 34.1415 40.3432 34.8082C39.2882 35.4759 38.4594 36.3751 37.8541 37.5072C37.2489 38.64 36.9462 39.9501 36.9462 41.439C36.9462 42.8977 37.2489 44.2078 37.8541 45.3711C38.4594 46.5345 39.2882 47.4417 40.3432 48.0931C41.3982 48.7446 42.6241 49.0704 44.0192 49.0704Z" fill="#023E7D"/>
<path d="M61.9808 54.0954V18.8706H68.0765V54.0954H61.9808Z" fill="#023E7D"/>
<path d="M73.7064 25.9438V19.4292H79.8021V25.9438H73.7064ZM73.7064 54.0956V28.782H79.8021V54.0956H73.7064Z" fill="#023E7D"/>
<path d="M97.7172 64.3329C95.825 64.3329 94.0717 64.0223 92.4586 63.4021C90.8455 62.7812 89.4573 61.9205 88.2939 60.8196C87.1306 59.7181 86.2851 58.4232 85.7583 56.9344L91.4354 54.7937C91.8075 55.9723 92.5439 56.9264 93.6455 57.6555C94.7463 58.384 96.104 58.7491 97.7171 58.7491C98.9575 58.7491 100.051 58.5163 100.998 58.0509C101.944 57.5858 102.68 56.9111 103.208 56.0268C103.735 55.1429 103.999 54.0806 103.999 52.8395V47.0693L105.162 48.4655C104.293 49.9856 103.13 51.1337 101.672 51.9087C100.214 52.6847 98.5542 53.072 96.6933 53.072C94.3354 53.072 92.2267 52.5296 90.3651 51.4436C88.5035 50.358 87.0452 48.8688 85.9908 46.9763C84.9358 45.0845 84.4089 42.9595 84.4089 40.6016C84.4089 38.2131 84.9358 36.0877 85.9908 34.2265C87.0452 32.3652 88.4883 30.8996 90.3186 29.8292C92.149 28.7589 94.2272 28.2241 96.5538 28.2241C98.446 28.2241 100.113 28.6194 101.556 29.4107C102.998 30.2016 104.2 31.3417 105.162 32.8306L104.325 34.3663V28.7822H110.095V52.8394C110.095 55.0418 109.559 57.0114 108.489 58.7491C107.419 60.4858 105.96 61.8507 104.116 62.8437C102.269 63.8362 100.137 64.3329 97.7172 64.3329ZM97.4382 47.4417C98.7403 47.4417 99.8807 47.1554 100.858 46.5809C101.835 46.0073 102.603 45.208 103.162 44.1845C103.72 43.1607 103.999 41.9821 103.999 40.648C103.999 39.3452 103.712 38.1745 103.138 37.1348C102.564 36.0961 101.789 35.2815 100.812 34.6919C99.8342 34.1029 98.7098 33.8079 97.4382 33.8079C96.1652 33.8079 95.0185 34.1029 93.9947 34.6919C92.9708 35.2815 92.1719 36.0961 91.5979 37.1348C91.0239 38.1745 90.7372 39.3452 90.7372 40.648C90.7372 41.9508 91.0239 43.1142 91.5979 44.138C92.1719 45.1615 92.9625 45.9687 93.9718 46.5577C94.9789 47.1474 96.1346 47.4417 97.4382 47.4417Z" fill="#023E7D"/>
<path d="M115.771 54.0954V18.8706H121.867V54.0954H115.771Z" fill="#023E7D"/>
<path d="M135.175 54.6539C133.407 54.6539 131.872 54.3586 130.568 53.7697C129.266 53.1811 128.257 52.3353 127.544 51.2337C126.83 50.1332 126.474 48.8532 126.474 47.3949C126.474 45.999 126.783 44.7507 127.404 43.6491C128.024 42.5482 128.986 41.6251 130.289 40.8803C131.592 40.1358 133.236 39.6087 135.222 39.2984L143.504 37.949V42.602L142.758 42.7289L136.385 43.8119C135.175 44.0295 134.275 44.4168 133.686 44.9752C133.096 45.5336 132.802 46.2628 132.802 47.1624C132.802 48.0311 133.135 48.721 133.803 49.2329C134.469 49.7448 135.299 50.0006 136.292 50.0006C137.563 50.0006 138.688 49.7295 139.665 49.1864C140.643 48.644 141.402 47.8915 141.945 46.9295C142.487 45.9685 142.76 44.9135 142.76 43.7654V37.2508C142.76 36.1656 142.333 35.2581 141.48 34.5288C140.626 33.8004 139.503 33.4353 138.106 33.4353C136.804 33.4353 135.648 33.7844 134.64 34.4824C133.632 35.1803 132.895 36.1038 132.43 37.2508L127.451 34.8311C127.946 33.4977 128.73 32.3417 129.8 31.3647C130.871 30.3874 132.134 29.6197 133.593 29.0613C135.051 28.5029 136.633 28.2239 138.339 28.2239C140.418 28.2239 142.248 28.6039 143.83 29.3636C145.412 30.1243 146.645 31.1784 147.529 32.528C148.414 33.8774 148.855 35.452 148.855 37.2508V54.0955H143.086V49.7681L144.388 49.6751C143.737 50.7614 142.961 51.6685 142.062 52.397C141.162 53.1262 140.138 53.6846 138.99 54.0723C137.842 54.4599 136.571 54.6539 135.175 54.6539ZM138.386 26.2693C136.742 26.2693 135.362 25.7504 134.244 24.7106C133.128 23.6716 132.569 22.3142 132.569 20.639C132.569 18.995 133.12 17.6536 134.221 16.6142C135.321 15.5751 136.711 15.0552 138.386 15.0552C140.03 15.0552 141.402 15.5751 142.504 16.6142C143.605 17.6536 144.156 18.995 144.156 20.639C144.156 22.3142 143.605 23.6716 142.504 24.7106C141.402 25.7504 140.03 26.2693 138.386 26.2693ZM138.386 22.6398C138.944 22.6398 139.401 22.4537 139.758 22.0817C140.115 21.7093 140.294 21.2286 140.294 20.639C140.294 20.05 140.115 19.5766 139.758 19.2199C139.401 18.8635 138.944 18.6847 138.386 18.6847C137.827 18.6847 137.354 18.8635 136.966 19.2199C136.578 19.5766 136.385 20.05 136.385 20.639C136.385 21.2286 136.571 21.7093 136.943 22.0817C137.316 22.4537 137.797 22.6398 138.386 22.6398Z" fill="#023E7D"/>
<path d="M154.485 54.0958V28.7822H160.208V33.7614L159.743 32.8771C160.332 31.3577 161.302 30.2016 162.651 29.4107C164.001 28.6194 165.575 28.2241 167.374 28.2241C169.236 28.2241 170.888 28.6274 172.33 29.434C173.772 30.2409 174.897 31.365 175.703 32.8074C176.51 34.2497 176.913 35.9177 176.913 37.8095V54.0958H170.818V39.2522C170.818 38.1354 170.6 37.174 170.166 36.3671C169.731 35.5609 169.134 34.9327 168.375 34.4826C167.614 34.0332 166.723 33.8079 165.699 33.8079C164.706 33.8079 163.822 34.0332 163.047 34.4826C162.271 34.9327 161.666 35.5609 161.233 36.3671C160.797 37.174 160.581 38.1354 160.581 39.2522V54.0958L154.485 54.0958Z" fill="#023E7D"/>
<path d="M115.771 12.1914V12.7705H121.867V12.1914C121.867 8.82485 124.596 6.09568 127.962 6.09568H176.52C179.887 6.09568 182.616 8.82485 182.616 12.1914V60.7491C182.616 64.1157 179.887 66.8448 176.52 66.8448H167.071C164.497 66.8448 161.988 67.66 159.905 69.1736L148.124 77.7341C147.352 78.295 146.269 77.7436 146.269 76.7894C146.269 71.2971 141.817 66.8448 136.325 66.8448H127.963C124.596 66.8448 121.867 64.1157 121.867 60.7491V60.2218H115.771V60.7492C115.771 67.4823 121.229 72.9406 127.962 72.9406H134.039C137.4 72.9406 140.127 75.6608 140.135 79.0217L140.158 88.833C140.16 89.7856 141.241 90.3348 142.012 89.7751L161.998 75.2661C164.08 73.7546 166.587 72.9406 169.16 72.9406H176.52C183.253 72.9406 188.712 67.4823 188.712 60.7492V12.1914C188.712 5.45824 183.253 0 176.52 0H127.962C121.229 0 115.771 5.45829 115.771 12.1914Z" fill="#09BC8A"/>
</g>
<defs>
<clipPath id="clip0_387_7898">
<rect width="188.712" height="90" fill="white"/>
</clipPath>
</defs>
</svg>
