<svg width="141" height="30" viewBox="0 0 141 30" fill="none" xmlns="http://www.w3.org/2000/svg">
<path d="M135.173 0C135.468 0.383661 135.709 0.801454 135.879 1.28315C136.544 3.1722 136.277 5.3982 135.071 7.88494C132.623 12.9285 126.438 18.5784 120.058 21.9354C121.204 21.6458 122.213 21.4405 123.477 21.2361C129.059 20.334 134.039 20.6178 136.405 21.7879C138.255 19.5068 139.941 15.6662 140.665 11.2725C141.608 5.54525 138.576 0.484517 135.173 0ZM125.498 0.134731C121.819 0.151434 117.128 0.76397 111.749 1.9953C113.57 3.94979 115.068 6.7763 115.99 10.1305C117.459 15.4725 116.707 20.2258 114.63 22.8849C124.71 19.6474 136.052 8.79829 133.967 2.98332C133.284 1.07799 130.228 0.113254 125.498 0.134731ZM64.4012 9.63644C64.4012 9.63644 64.4012 15.5045 64.4012 16.142C62.9304 15.1683 60.8774 14.6086 58.6912 14.6086C53.1318 14.6086 49.2536 17.7677 49.2536 22.2947C49.2536 26.8212 53.1318 29.9808 58.6912 29.9808C60.872 29.9808 62.8296 29.4902 64.4012 28.5821C64.4012 28.9126 64.4012 29.6022 64.4012 29.6022H68.1351V22.2498C68.1351 22.2526 68.1351 22.2241 68.1351 22.2241V9.63644H64.4012ZM0 11.6253C0 12.2323 0.00641574 29.6536 0.00641574 29.6536H3.74679L3.74038 17.6048L15.1796 29.6086L18.7917 29.6407V11.6317H15.0513V23.9371L3.7083 11.6253H0ZM99.4889 14.6151C93.9295 14.6151 90.0449 17.7815 90.0449 22.3075C90.0449 26.9066 93.8138 29.9936 99.4183 29.9936C101.696 29.9936 103.767 29.5944 105.192 28.6014C105.192 28.9931 105.192 29.6215 105.192 29.6215H108.926V22.3845C108.926 17.7395 105.135 14.6151 99.4889 14.6151ZM48.9649 14.6215C48.4727 14.6426 46.3938 14.814 44.6215 16.1548C44.6215 15.8369 44.6215 15.0064 44.6215 15.0064H40.8939V29.6086H44.6535V21.8328C44.6535 20.5029 44.808 19.1541 46.6039 18.4966C47.1988 18.2787 47.7926 18.1804 48.5351 18.1822H49.074V14.6215C49.074 14.6215 49.0352 14.6185 48.9649 14.6215ZM79.305 14.6215C73.8816 14.5845 69.8931 17.7946 69.8931 22.3909C69.8923 26.4724 73.5144 29.9863 79.305 29.9936C81.4211 29.9962 83.2021 29.6268 84.8289 28.7361C86.6194 27.755 88.21 26.1169 88.6848 23.7639L84.1937 24.7391C83.3866 25.8805 81.6577 26.8051 79.305 26.7729C77.3235 26.7454 75.7678 26.1265 74.7883 24.9829C74.9882 24.9399 88.8323 21.9411 88.8323 21.9354C88.6724 19.1358 86.5103 14.6692 79.305 14.6215ZM29.8204 14.6279C24.2612 14.6279 20.3764 17.7872 20.3764 22.3139C20.3764 26.8405 24.2612 30 29.8204 30C35.3795 30 39.2643 26.8405 39.2643 22.3139C39.2643 17.7872 35.3795 14.6279 29.8204 14.6279ZM79.305 17.8101C81.609 17.8275 83.2545 18.649 84.0654 19.7156C83.5609 19.8249 74.3112 21.8284 73.8452 21.929C74.0009 19.5736 76.1343 17.8968 79.305 17.8101ZM99.1745 17.8422C99.2764 17.8387 99.3848 17.8422 99.4889 17.8422C102.82 17.8422 105.058 19.6362 105.058 22.3075C105.058 24.9787 102.82 26.7729 99.4889 26.7729C96.1573 26.7729 93.9136 24.9787 93.9136 22.3075C93.9136 19.7196 96.0143 17.95 99.1745 17.8422ZM29.8204 17.8486C33.1514 17.8486 35.3892 19.642 35.3892 22.3139C35.3892 24.9847 33.1514 26.7793 29.8204 26.7793C26.4893 26.7793 24.2515 24.9847 24.2515 22.3139C24.2515 19.642 26.4893 17.8486 29.8204 17.8486ZM58.6912 17.8486C62.0222 17.8486 64.26 19.642 64.26 22.3139C64.26 24.9847 62.0222 26.7793 58.6912 26.7793C55.3604 26.7793 53.1223 24.9847 53.1223 22.3139C53.1223 19.642 55.3604 17.8486 58.6912 17.8486Z" fill="#005284"/>
</svg>
