<svg width="190" height="30" viewBox="0 0 190 30" fill="none" xmlns="http://www.w3.org/2000/svg">
<g clip-path="url(#clip0_219_7615)">
<path fillRule="evenodd" clip-rule="evenodd" d="M169.975 4.53264C169.975 4.67076 169.867 4.77958 169.733 4.77958H161.199C161.065 4.77958 160.952 4.67076 160.952 4.53264V0.284597C160.952 0.146484 161.065 0.0376663 161.199 0.0376663H169.733C169.867 0.0376663 169.975 0.146484 169.975 0.284597V4.53264Z" fill="#0053A0"/>
<path fillRule="evenodd" clip-rule="evenodd" d="M169.975 22.3954C169.975 22.5335 169.867 22.6716 169.733 22.6716H161.232C161.094 22.6716 160.952 22.5712 160.952 22.3954V6.88058C160.952 6.74247 161.065 6.63365 161.199 6.63365H169.733C169.867 6.63365 169.975 6.74247 169.975 6.88058V22.3954Z" fill="#0053A0"/>
<path fillRule="evenodd" clip-rule="evenodd" d="M155.147 0.27204V22.4037C155.147 22.6046 154.912 22.6716 154.912 22.6716L147.182 22.6758C145.789 22.6758 141.578 23.4375 137.615 22.5167C135.493 21.9978 133.735 21.529 132.417 19.5117C132.103 18.9174 131.722 17.8083 131.722 16.2054V12.0033C131.722 10.6808 131.94 8.41239 133.417 7.24888C137.037 4.42383 142.813 4.8005 146.613 5.23158V0.339004C146.613 0.096259 146.923 0.0334799 146.923 0.0334799H154.971C155.139 0.0251094 155.147 0.27204 155.147 0.27204ZM146.663 11.3546C146.663 10.0572 145.383 9.41267 144.169 9.41267H143.248C142.018 9.41267 140.754 10.0572 140.754 11.3546C140.754 11.3546 140.653 13.7486 140.653 14.0081C140.653 14.2718 140.754 16.8248 140.754 16.8248C140.754 18.1222 142.018 18.6914 143.248 18.6914H144.169C145.399 18.6914 146.663 18.1222 146.663 16.8248V11.3546Z" fill="#0053A0"/>
<path fillRule="evenodd" clip-rule="evenodd" d="M175.165 17.8041C175.165 21.0435 177.228 22.6716 180.426 22.6716H188.767C188.968 22.6716 189.056 22.5293 189.052 22.3451V18.3022C189.064 18.1097 189.01 18.0343 188.834 18.0301H185.314C184.536 18.0301 183.883 17.5698 183.883 16.6574V11.6057C183.883 11.363 184.08 11.2123 184.08 11.2123L188.646 8.95229C188.985 8.78488 189.027 8.67606 189.035 8.61328V5.90541C189.01 5.82589 188.985 5.6543 188.759 5.6543H184.084C183.904 5.62918 183.858 5.4827 183.862 5.33622V1.77037C183.862 1.77037 183.837 1.54018 183.594 1.54018H175.429C175.429 1.54018 175.19 1.59877 175.165 1.77455V17.8041Z" fill="#0053A0"/>
<path fillRule="evenodd" clip-rule="evenodd" d="M112.306 16.695C112.306 17.5991 112.511 18.2101 112.98 18.4738C114.131 19.1518 116.877 19.0765 118.032 18.6998C118.731 18.4487 118.919 17.9925 118.919 17.2977C118.919 17.214 119.032 17.0843 119.225 17.0843H127.47C127.696 17.0843 127.737 17.3228 127.729 17.4819C127.52 19.2648 127.562 23.0608 115.039 23.0608C105.032 23.0608 103.375 19.6708 103.375 17.1429V10.911C103.404 8.42076 104.999 4.9428 115.039 4.9428C122.439 4.9428 125.565 6.15653 126.992 8.03572C127.792 9.09878 127.867 10.1869 127.867 10.1869V15.0753C127.867 15.2176 127.767 15.4018 127.578 15.4018H112.612C112.415 15.4018 112.306 15.4813 112.306 15.6822V16.695ZM112.306 11.748C112.315 11.9322 112.432 12.0368 112.524 12.0368H119.099C119.3 12.0285 119.359 11.8778 119.359 11.7313V10.4967C119.312 10.0405 119.275 9.6303 118.806 9.28711C117.839 8.67606 113.604 8.63421 112.717 9.42104C112.444 9.6596 112.34 10.0907 112.306 10.5134V11.748Z" fill="#0053A0"/>
<path fillRule="evenodd" clip-rule="evenodd" d="M95.9714 22.4289C95.9714 22.4289 95.9463 22.6716 95.7328 22.6716H87.4711C87.2911 22.6716 87.22 22.4247 87.22 22.4247V5.92634C87.22 5.92634 87.2869 5.66266 87.4669 5.66685H101.103C101.073 5.68359 101.278 5.73382 101.274 5.88867V8.8644C101.274 8.8644 101.278 9.07784 101.082 9.17829L96.2016 11.5723C96.0341 11.6267 95.9965 11.7397 95.9504 11.7732V22.4247L95.9714 22.4289Z" fill="#0053A0"/>
<path fillRule="evenodd" clip-rule="evenodd" d="M73.4337 5.66267H82.1223C82.725 5.66685 82.273 6.11049 82.273 6.11049L76.5057 12.2294C76.3802 12.3465 76.3802 12.4344 76.4848 12.5307L84.441 22.3033C84.7214 22.5544 84.5163 22.6674 84.4159 22.6674L74.3545 22.6716C74.028 22.6716 73.9443 22.4079 73.869 22.3158L69.0685 15.2846C68.8299 14.9414 68.5412 14.7614 67.8841 14.82C67.6413 14.8493 67.633 15.2051 67.633 15.2051V22.3661C67.633 22.3661 67.6288 22.6842 67.3232 22.6842L59.0406 22.68C58.8648 22.6716 58.7686 22.5167 58.7686 22.3744V0.251116C58.7686 0.100447 58.7853 0.029297 59.0239 0.029297H67.4069C67.3986 0.0167412 67.6539 0.029297 67.633 0.263672V11.6643C67.633 11.9406 67.8004 12.1582 68.1017 11.8987L72.8143 5.92215C73.0612 5.67104 73.4337 5.66267 73.4337 5.66267Z" fill="#0053A0"/>
<path fillRule="evenodd" clip-rule="evenodd" d="M44.0741 14.8284L47.8785 5.90123C47.9748 5.7673 48.1631 5.67522 48.3138 5.65848H56.3788C56.3788 5.65011 56.6467 5.66266 56.5546 5.91378L45.5808 26.2709C44.4173 28.4096 42.061 29.1253 40.3702 29.1629H33.4059C33.4059 29.1629 33.1255 29.1713 33.1255 28.8993V24.0234C33.159 23.8393 33.2761 23.7305 33.4561 23.7305L38.152 23.7263C39.4996 23.7263 39.801 22.8516 39.282 21.8429L30.4971 6.06027C30.2627 5.57059 30.8319 5.66685 31.1835 5.66685L38.7965 5.66266C38.9597 5.70033 39.0225 5.85937 39.0727 5.95145L43.6305 14.841C43.8523 15.3181 44.0741 14.8284 44.0741 14.8284Z" fill="#0053A0"/>
<path fillRule="evenodd" clip-rule="evenodd" d="M0.752302 22.454L0.785785 0.309711C0.785785 0.0544093 1.03272 0.0334829 1.02016 0.0334829H11.9688C12.2074 0.0292977 12.2409 0.284599 12.2492 0.280414L19.6572 14.1253C19.7367 14.2425 19.9083 14.3094 20.0464 14.255C20.1887 14.2006 20.2473 13.9704 20.2473 13.9704L19.9418 0.326452C19.9376 0.154855 19.9711 0.0627798 20.1385 0.0334829H27.6134C27.9105 0.0334829 27.9356 0.276229 27.9314 0.267858V22.3786C27.9314 22.3786 27.898 22.6758 27.5924 22.6716L17.0497 22.68C16.8112 22.68 16.6103 22.6758 16.3843 22.3033L9.03913 8.41239C8.77546 8.05664 8.39042 8.32031 8.39042 8.71791L8.81313 22.3744C8.84243 22.5753 8.6792 22.6883 8.52016 22.6758L1.0076 22.68C0.86949 22.6842 0.748117 22.5753 0.752302 22.454Z" fill="#0053A0"/>
</g>
<defs>
<clipPath id="clip0_219_7615">
<rect width="189.643" height="30" fill="white" transform="translate(0.212402)"/>
</clipPath>
</defs>
</svg>
