<svg width="195" height="30" viewBox="0 0 195 30" fill="none" xmlns="http://www.w3.org/2000/svg">
<path d="M14.4286 11.5349C11.1011 9.42949 5.28546 10.0189 5.28546 6.4755C5.28546 3.9541 6.87546 3.45358 9.38054 3.45358C11.4473 3.45358 13.0293 3.96591 13.0293 3.96591L13.5854 6.07057H15.2445V2.76249C15.2445 2.76249 12.774 1.55425 8.77184 1.55425C4.7708 1.55425 1.94287 3.23923 1.94287 6.7856C1.94287 10.1646 3.65893 11.615 8.48194 12.8958C12.2173 13.8874 13.2844 14.6437 13.4158 16.581C13.6514 20.0708 11.5164 20.5718 8.70966 20.5718C6.38147 20.5718 4.29842 19.6185 4.29842 19.6185L3.78158 17.1897H2.12318V20.9619C2.12318 20.9619 5.61981 22.4563 8.88873 22.4563C13.4874 22.4563 16.9878 21.5873 16.9878 16.6554C16.988 14.074 16.3079 12.7242 14.4286 11.5349Z" fill="#002D5A"/>
<path d="M27.9412 9.49508L29.9847 9.85182L26.1135 19.4849L22.0803 9.85182L23.6479 9.49508V8.33581H16.6099V9.49508L18.6656 9.85182L23.9272 22.0875L24.9264 22.0851L24.1624 23.9144C23.024 26.7393 21.69 26.8873 20.6821 26.8873C20.2266 26.8873 19.9018 26.8289 19.9018 26.8289L19.6088 24.8904H18.0472V28.0471C18.0472 28.0471 19.2188 28.4333 20.6821 28.4333C23.5447 28.4333 24.8129 27.6008 26.1133 24.4797L32.1635 9.85182L34.2272 9.49508V8.33581H27.9408V9.49508H27.9412Z" fill="#002D5A"/>
<path d="M48.2506 1.8586L42.8326 1.87726V3.06389L44.9001 3.45094V8.80819C44.3793 8.54068 42.6796 7.85985 40.1842 7.85985C36.7357 7.85985 34.5244 10.6844 34.5244 15.2627C34.5244 20.0504 36.5403 22.4874 39.8256 22.4874C42.1356 22.4874 44.9654 21.0012 44.9654 21.0012L45.0625 22.0783L50.317 22.1064V21.0431L48.2507 20.6955V1.8586H48.2506ZM44.8999 19.4257C44.8999 19.4257 42.8503 20.3767 41.1919 20.3767C39.2075 20.3767 38.0691 18.7115 38.0691 15.0842C38.0691 11.8146 39.2402 9.94135 41.4196 9.94135C43.2738 9.94135 44.8999 10.2944 44.8999 10.2944V19.4257Z" fill="#002D5A"/>
<path d="M62.4639 7.85985C59.5749 7.85985 57.2915 8.86741 57.2915 8.86741V1.8586L51.8745 1.87726V3.06389L53.9416 3.45094V22.0442H57.0317L57.2681 20.9406C57.2681 20.9406 59.183 22.4677 62.008 22.4677C65.4557 22.4677 67.6677 19.6632 67.6677 15.0842C67.6679 10.2981 65.748 7.85985 62.4639 7.85985ZM60.7718 20.4064C58.9183 20.4064 57.2915 19.5138 57.2915 19.5138V10.5034C57.2915 10.5034 59.4382 9.97104 61.0966 9.97104C63.0818 9.97104 64.1223 11.6355 64.1223 15.2627C64.1223 18.5332 62.9512 20.4064 60.7718 20.4064Z" fill="#002D5A"/>
<path d="M81.8488 13.1815C81.8488 11.3683 81.8488 9.85182 80.8079 8.90005C80.1247 8.27581 79.0189 7.85985 77.1001 7.85985C73.8475 7.85985 70.985 8.93037 70.985 8.93037V11.6263L72.3208 11.6218L72.6138 10.1706C72.6138 10.1706 74.4981 9.73306 75.8634 9.73306C78.238 9.73306 78.5642 10.4465 78.5642 12.9435V13.5662C75.3435 13.5958 69.8792 13.4224 69.8792 17.9706C69.8792 20.9436 71.7334 22.5101 74.0426 22.5101C75.4406 22.5101 76.677 22.1002 78.6287 21.09L78.7267 22.091L83.8187 22.0826V21.0042L81.8488 20.7233V13.1815ZM78.5642 19.6034C78.5642 19.6034 76.9703 20.5256 75.5712 20.5256C74.6279 20.5256 73.2612 19.992 73.2612 18.0308C73.2612 16.0088 74.9533 15.1424 78.5642 15.1424V19.6034Z" fill="#002D5A"/>
<path d="M100.356 12.8055C100.356 10.6052 100.258 9.95052 99.6075 9.14875C98.8925 8.25653 97.754 7.78072 96.192 7.78072C94.8258 7.78072 93.0377 8.2657 90.8256 9.21793L90.7284 8.32881L85.4731 8.32725V9.47596L87.541 9.84824V20.6372L85.5711 20.981V22.0428H92.7307V20.981L90.8909 20.6372V10.853C90.8909 10.853 92.8099 10.0705 94.6968 10.0705C97.2333 10.0705 97.0057 11.6754 97.0057 13.4294V20.6372L95.1664 20.981V22.0428H102.423V20.981L100.356 20.6372V12.8055H100.356Z" fill="#002D5A"/>
<path d="M113.081 14.0274L117.895 9.8428L119.929 9.48529V8.32663H113.128V9.48529L115 9.8428L110.55 13.7967H109.431V1.80591L104.013 1.82441V2.97311L106.081 3.34539V20.5657L104.11 20.9209V22.0814H111.271V20.9209L109.431 20.5657V15.4662H110.662L115.846 20.631L114.136 20.9285V22.0882H121.653V20.9285L119.651 20.5718L113.081 14.0274Z" fill="#002D5A"/>
<path d="M159.682 13.1812C159.682 11.368 159.682 9.85197 158.641 8.90052C157.957 8.27627 156.852 7.86 154.933 7.86C151.681 7.86 148.817 8.93021 148.817 8.93021V11.6262L150.154 11.6224L150.447 10.1705C150.447 10.1705 152.331 9.7329 153.697 9.7329C156.071 9.7329 156.396 10.4464 156.396 12.9446V13.5662C153.177 13.5958 147.712 13.4224 147.712 17.9717C147.712 20.9439 149.566 22.5112 151.875 22.5112C153.274 22.5112 154.51 22.1005 156.461 21.0903L156.559 22.0913L161.651 22.0822V21.0044L159.682 20.7235L159.682 13.1812ZM156.396 19.6041C156.396 19.6041 154.803 20.5264 153.404 20.5264C152.461 20.5264 151.094 19.9927 151.094 18.0308C151.094 16.0088 152.786 15.1421 156.396 15.1421V19.6041Z" fill="#002D5A"/>
<path d="M191.513 20.5718L184.942 14.0274L189.756 9.8428L191.79 9.48529V8.32663H184.989V9.48529L186.861 9.8428L182.411 13.7967H181.292V1.80591L175.875 1.82441V2.97311L177.942 3.34539V20.5657L175.973 20.9209V22.0814H183.131V20.9209L181.292 20.5657V15.4662H182.523L187.707 20.631L185.997 20.9285V22.0882H193.514V20.9285L191.513 20.5718Z" fill="#002D5A"/>
<path d="M168.903 9.38891L168.805 8.33502L163.5 8.34031V9.39497L165.632 9.8044V20.5612L163.498 21.0696V22.0761H171.058V20.9171L168.967 20.5612V11.2013C169.388 10.9634 171.04 9.98316 172.951 9.98316L173.307 12.0623H174.926V7.85766C174.926 7.85766 174.506 7.73891 173.728 7.73891C171.817 7.73891 170.23 8.6459 168.903 9.38891Z" fill="#002D5A"/>
<path d="M145.014 3.10943C143.879 2.33596 142.42 2.06891 139.665 2.06891L130.497 2.06969V3.21761L132.565 3.59067L132.566 3.58989L132.557 20.4814L130.597 20.8359V21.9956H138.098V20.8359L136.14 20.4814L136.099 13.638H138.433C141.351 13.638 143.685 13.4593 145.338 12.062C146.538 11.0507 147.219 9.56347 147.219 7.71979C147.219 5.63767 146.441 4.0615 145.014 3.10943ZM142.032 11.1395C140.961 11.9428 139.437 11.8833 137.46 11.8833H136.099V3.8229H138.271C139.698 3.8229 141.221 3.8829 142.063 4.50746C142.907 5.13171 143.49 6.26191 143.49 7.7787C143.49 9.3844 142.971 10.4557 142.032 11.1395Z" fill="#002D5A"/>
</svg>
