<svg width="322" height="36" viewBox="0 0 322 36" fill="none" xmlns="http://www.w3.org/2000/svg">
<path d="M0 0H37.2355V36H0V0Z" fill="#00B67A"/>
<path d="M43.2122 0H80.4477V36H43.2122V0Z" fill="#00B67A"/>
<path d="M86.7287 0H123.964V36H86.7287V0Z" fill="#00B67A"/>
<path d="M130.245 0H167.481V36H130.245V0Z" fill="#00B67A"/>
<path d="M173.153 0H210.388V36H173.153V0Z" fill="#00B67A"/>
<path d="M31.1508 15.1916H21.575L18.6272 6.08622L15.662 15.1916L6.08622 15.1742L13.8306 20.8084L10.8654 29.9138L18.6098 24.2796L26.3542 29.9138L23.4064 20.8084L31.1508 15.1916Z" fill="#FAFAFA"/>
<path d="M24.0692 22.8666L23.4064 20.8084L18.6272 24.2794L24.0692 22.8666Z" fill="#005128"/>
<path d="M74.472 15.1916H64.8962L61.9485 6.08622L58.9833 15.1916L49.4074 15.1742L57.1518 20.8084L54.1866 29.9138L61.931 24.2796L69.6754 29.9138L66.7276 20.8084L74.472 15.1916Z" fill="#FAFAFA"/>
<path d="M67.3905 22.8666L66.7276 20.8084L61.9485 24.2794L67.3905 22.8666Z" fill="#005128"/>
<path d="M117.793 15.1916H108.217L105.27 6.08622L102.304 15.1916L92.7287 15.1742L100.473 20.8084L97.5079 29.9138L105.252 24.2796L112.997 29.9138L110.049 20.8084L117.793 15.1916Z" fill="#FAFAFA"/>
<path d="M110.712 22.8666L110.049 20.8084L105.27 24.2794L110.712 22.8666Z" fill="#005128"/>
<path d="M161.114 15.1916H151.539L148.591 6.08622L145.626 15.1916L136.05 15.1742L143.794 20.8084L140.829 29.9138L148.573 24.2796L156.318 29.9138L153.37 20.8084L161.114 15.1916Z" fill="#FAFAFA"/>
<path d="M154.033 22.8666L153.37 20.8084L148.591 24.2794L154.033 22.8666Z" fill="#005128"/>
<path d="M204.434 15.1917H194.859L191.911 6.08627L188.946 15.1917L179.371 15.1742L187.115 20.8084L184.15 29.9138L191.894 24.2796L199.637 29.9138L196.69 20.8084L204.434 15.1917Z" fill="#FAFAFA"/>
<path d="M197.353 22.8665L196.69 20.8084L191.911 24.2794L197.353 22.8665Z" fill="#005128"/>
<path d="M244.123 15.2156H254.71V17.1865H250.541V28.2973H248.256V17.1865H244.105L244.123 15.2156ZM254.257 18.8261H256.21V20.6575H256.245C256.315 20.3959 256.437 20.1517 256.611 19.9075C256.786 19.6633 256.995 19.4366 257.257 19.2447C257.501 19.0354 257.78 18.8784 258.094 18.7563C258.39 18.6342 258.704 18.5645 259.018 18.5645C259.263 18.5645 259.437 18.5819 259.524 18.5819C259.611 18.5994 259.716 18.6168 259.803 18.6168V20.6227C259.664 20.5878 259.507 20.5703 259.35 20.5529C259.193 20.5355 259.053 20.518 258.896 20.518C258.547 20.518 258.216 20.5878 257.902 20.7273C257.588 20.8669 257.326 21.0762 257.082 21.3378C256.856 21.6169 256.664 21.9483 256.524 22.3495C256.385 22.7506 256.315 23.2216 256.315 23.7448V28.2449H254.222L254.257 18.8261ZM267.338 28.2973V26.9717H267.303C267.042 27.46 266.658 27.8263 266.152 28.1229C265.646 28.4194 265.123 28.5589 264.6 28.5589C263.362 28.5589 262.455 28.2624 261.896 27.6345C261.338 27.024 261.059 26.0821 261.059 24.8437V18.8261H263.152V24.6344C263.152 25.4716 263.309 26.0647 263.641 26.3961C263.955 26.7449 264.408 26.9193 264.984 26.9193C265.42 26.9193 265.786 26.8496 266.082 26.71C266.379 26.5705 266.623 26.3961 266.798 26.1693C266.99 25.9426 267.112 25.6635 267.199 25.3495C267.286 25.0356 267.321 24.6867 267.321 24.3204V18.8261H269.414V28.2973H267.338ZM272.955 25.2623C273.025 25.8728 273.251 26.2914 273.652 26.553C274.054 26.7972 274.542 26.9193 275.1 26.9193C275.292 26.9193 275.519 26.9019 275.763 26.867C276.007 26.8321 276.251 26.7798 276.461 26.6926C276.687 26.6054 276.862 26.4833 277.001 26.3088C277.141 26.1344 277.211 25.9251 277.193 25.6635C277.176 25.4019 277.089 25.1751 276.897 25.0007C276.705 24.8263 276.478 24.7042 276.199 24.5821C275.92 24.4774 275.589 24.3902 275.222 24.3204C274.856 24.2507 274.49 24.1635 274.106 24.0762C273.722 23.989 273.338 23.8844 272.972 23.7623C272.606 23.6402 272.292 23.4832 271.995 23.2564C271.716 23.0471 271.472 22.7855 271.315 22.4541C271.141 22.1227 271.054 21.739 271.054 21.2506C271.054 20.7273 271.176 20.3087 271.437 19.9599C271.681 19.611 272.013 19.3319 272.397 19.1226C272.78 18.9133 273.216 18.7563 273.687 18.6691C274.158 18.5819 274.612 18.547 275.03 18.547C275.519 18.547 275.99 18.5994 276.426 18.704C276.862 18.8087 277.28 18.9656 277.629 19.2098C277.996 19.4366 278.292 19.7505 278.519 20.1168C278.763 20.4831 278.903 20.9366 278.972 21.4599H276.792C276.687 20.9541 276.461 20.6227 276.112 20.4482C275.746 20.2738 275.344 20.1866 274.873 20.1866C274.734 20.1866 274.542 20.204 274.35 20.2215C274.141 20.2564 273.966 20.2913 273.775 20.361C273.6 20.4308 273.443 20.5355 273.321 20.6575C273.199 20.7796 273.129 20.9541 273.129 21.1634C273.129 21.425 273.216 21.6169 273.391 21.7739C273.565 21.9308 273.792 22.0529 274.089 22.175C274.368 22.2797 274.699 22.3669 275.065 22.4367C275.432 22.5064 275.815 22.5936 276.199 22.6809C276.583 22.7681 276.949 22.8727 277.315 22.9948C277.682 23.1169 278.013 23.2739 278.292 23.5006C278.571 23.71 278.815 23.9716 278.99 24.2855C279.164 24.5995 279.251 25.0007 279.251 25.4542C279.251 26.0123 279.129 26.4833 278.868 26.8844C278.606 27.2682 278.275 27.5996 277.873 27.8438C277.472 28.088 277.001 28.2624 276.513 28.3845C276.007 28.4891 275.519 28.5589 275.03 28.5589C274.437 28.5589 273.879 28.4891 273.373 28.3496C272.868 28.2101 272.414 28.0008 272.048 27.7391C271.681 27.46 271.385 27.1286 271.176 26.71C270.966 26.3089 270.844 25.8205 270.827 25.2449H272.937V25.2623H272.955ZM279.844 18.8261H281.432V15.9656H283.525V18.8087H285.409V20.361H283.525V25.4193C283.525 25.646 283.542 25.8205 283.56 25.9949C283.577 26.1519 283.629 26.2914 283.682 26.3961C283.752 26.5007 283.856 26.5879 283.978 26.6403C284.118 26.6926 284.292 26.7275 284.536 26.7275C284.676 26.7275 284.833 26.7275 284.973 26.71C285.112 26.6926 285.269 26.6751 285.409 26.6403V28.2624C285.182 28.2973 284.955 28.3147 284.728 28.3322C284.502 28.367 284.292 28.367 284.048 28.367C283.49 28.367 283.054 28.3147 282.722 28.2101C282.391 28.1054 282.129 27.9484 281.938 27.7566C281.746 27.5473 281.624 27.3031 281.554 27.0065C281.484 26.71 281.449 26.3437 281.432 25.96V20.3785H279.844V18.7912V18.8261ZM286.874 18.8261H288.845V20.1168H288.88C289.176 19.5587 289.577 19.175 290.101 18.9308C290.624 18.6866 291.182 18.5645 291.81 18.5645C292.56 18.5645 293.205 18.6866 293.763 18.9656C294.322 19.2273 294.775 19.5761 295.141 20.0471C295.508 20.5006 295.787 21.0413 295.961 21.6518C296.136 22.2622 296.24 22.925 296.24 23.6053C296.24 24.2507 296.153 24.8611 295.996 25.4542C295.822 26.0472 295.577 26.5879 295.246 27.0414C294.915 27.4949 294.496 27.8612 293.973 28.1403C293.449 28.4194 292.856 28.5589 292.159 28.5589C291.862 28.5589 291.548 28.524 291.252 28.4717C290.955 28.4194 290.659 28.3322 290.38 28.2101C290.101 28.088 289.839 27.931 289.612 27.7391C289.368 27.5473 289.176 27.3205 289.019 27.0763H288.984V31.8032H286.891V18.8261H286.874ZM294.182 23.5704C294.182 23.1518 294.13 22.7332 294.008 22.332C293.903 21.9308 293.729 21.582 293.502 21.268C293.275 20.9541 292.996 20.7099 292.682 20.518C292.351 20.3261 291.967 20.2389 291.548 20.2389C290.676 20.2389 290.013 20.5355 289.56 21.1459C289.124 21.7564 288.897 22.5762 288.897 23.5879C288.897 24.0762 288.949 24.5123 289.071 24.9135C289.194 25.3146 289.351 25.6635 289.595 25.96C289.821 26.2565 290.101 26.4833 290.432 26.6577C290.763 26.8321 291.13 26.9193 291.566 26.9193C292.054 26.9193 292.438 26.8147 292.769 26.6228C293.101 26.4309 293.362 26.1693 293.589 25.8728C293.798 25.5588 293.955 25.21 294.043 24.8088C294.13 24.3902 294.182 23.989 294.182 23.5704ZM297.862 15.2156H299.955V17.1865H297.862V15.2156ZM297.862 18.8261H299.955V28.2973H297.862V18.8261ZM301.822 15.2156H303.915V28.2973H301.822V15.2156ZM310.299 28.5589C309.549 28.5589 308.868 28.4368 308.275 28.1752C307.682 27.9135 307.194 27.5821 306.775 27.1461C306.374 26.71 306.06 26.1693 305.851 25.5588C305.642 24.9484 305.52 24.2681 305.52 23.553C305.52 22.8378 305.624 22.175 305.851 21.5645C306.06 20.9541 306.374 20.4308 306.775 19.9773C307.177 19.5412 307.682 19.1924 308.275 18.9482C308.868 18.704 309.549 18.5645 310.299 18.5645C311.049 18.5645 311.729 18.6866 312.322 18.9482C312.915 19.1924 313.403 19.5412 313.822 19.9773C314.223 20.4134 314.537 20.9541 314.746 21.5645C314.956 22.175 315.078 22.8378 315.078 23.553C315.078 24.2855 314.973 24.9483 314.746 25.5588C314.52 26.1693 314.223 26.6926 313.822 27.1461C313.421 27.5821 312.915 27.931 312.322 28.1752C311.729 28.4194 311.066 28.5589 310.299 28.5589ZM310.299 26.9019C310.752 26.9019 311.171 26.7972 311.502 26.6054C311.851 26.4135 312.113 26.1519 312.339 25.8379C312.566 25.5239 312.723 25.1577 312.828 24.7739C312.933 24.3728 312.985 23.9716 312.985 23.553C312.985 23.1518 312.933 22.7506 312.828 22.3495C312.723 21.9483 312.566 21.5994 312.339 21.2855C312.113 20.9715 311.834 20.7273 311.502 20.5355C311.153 20.3436 310.752 20.2389 310.299 20.2389C309.845 20.2389 309.427 20.3436 309.095 20.5355C308.746 20.7273 308.485 20.989 308.258 21.2855C308.031 21.5994 307.874 21.9483 307.77 22.3495C307.665 22.7506 307.613 23.1518 307.613 23.553C307.613 23.9716 307.665 24.3728 307.77 24.7739C307.874 25.1751 308.031 25.5239 308.258 25.8379C308.485 26.1519 308.764 26.4135 309.095 26.6054C309.444 26.8147 309.845 26.9019 310.299 26.9019ZM315.706 18.8261H317.293V15.9656H319.386V18.8087H321.27V20.361H319.386V25.4193C319.386 25.646 319.404 25.8205 319.421 25.9949C319.438 26.1519 319.491 26.2914 319.543 26.3961C319.613 26.5007 319.718 26.5879 319.84 26.6403C319.979 26.6926 320.154 26.7275 320.398 26.7275C320.537 26.7275 320.694 26.7275 320.834 26.71C320.973 26.6926 321.13 26.6751 321.27 26.6403V28.2624C321.043 28.2973 320.816 28.3147 320.59 28.3322C320.363 28.367 320.154 28.367 319.909 28.367C319.351 28.367 318.915 28.3147 318.584 28.2101C318.252 28.1054 317.991 27.9484 317.799 27.7566C317.607 27.5473 317.485 27.3031 317.415 27.0065C317.345 26.71 317.311 26.3437 317.293 25.96V20.3785H315.706V18.7912V18.8261Z" fill="white"/>
<path d="M241.671 15.1918H232.095L229.147 6.0869L226.182 15.1918L216.606 15.1743L224.351 20.8082L221.385 29.9131L229.13 24.2792L236.874 29.9131L233.926 20.8082L241.671 15.1918Z" fill="#00B67A"/>
<path d="M234.589 22.8664L233.926 20.8082L229.147 24.2793L234.589 22.8664Z" fill="#005128"/>
</svg>
